<?xml version="1.0" encoding="UTF-8" standalone="no"?>
<!DOCTYPE svg PUBLIC "-//W3C//DTD SVG 1.1//EN"
 "http://www.w3.org/Graphics/SVG/1.1/DTD/svg11.dtd">
<!-- Generated by graphviz version 12.1.2 (20240928.0832)
 -->
<!-- Title: chat Pages: 1 -->
<svg width="272pt" height="382pt"
 viewBox="0.00 0.00 271.59 382.40" xmlns="http://www.w3.org/2000/svg" xmlns:xlink="http://www.w3.org/1999/xlink">
<g id="graph0" class="graph" transform="scale(1 1) rotate(0) translate(4 378.4)">
<title>chat</title>
<polygon fill="white" stroke="none" points="-4,4 -4,-378.4 267.59,-378.4 267.59,4 -4,4"/>
<!-- chat -->
<g id="node1" class="node">
<title>chat</title>
<polygon fill="#efefef" stroke="none" points="46.2,-292.6 46.2,-328.2 217.39,-328.2 217.39,-292.6 46.2,-292.6"/>
<polygon fill="none" stroke="black" points="46.2,-292.6 46.2,-328.2 217.39,-328.2 217.39,-292.6 46.2,-292.6"/>
<text text-anchor="start" x="54.56" y="-306" font-family="Arial Bold" font-size="18.00">chat</text>
<text text-anchor="start" x="84.54" y="-306" font-family="Arial" font-size="14.00">    </text>
<text text-anchor="start" x="115.66" y="-306" font-family="Arial" font-size="14.00" fill="#666666">[BASE TABLE]</text>
<polygon fill="none" stroke="black" points="46.2,-261.8 46.2,-292.6 217.39,-292.6 217.39,-261.8 46.2,-261.8"/>
<text text-anchor="start" x="53.2" y="-274" font-family="Arial" font-size="14.00">chat_id </text>
<text text-anchor="start" x="102.23" y="-274" font-family="Arial" font-size="14.00" fill="#666666">[varbinary(16)]</text>
<polygon fill="none" stroke="black" points="46.2,-231 46.2,-261.8 217.39,-261.8 217.39,-231 46.2,-231"/>
<text text-anchor="start" x="53.2" y="-243.2" font-family="Arial" font-size="14.00">name </text>
<text text-anchor="start" x="92.11" y="-243.2" font-family="Arial" font-size="14.00" fill="#666666">[varchar(256)]</text>
<polygon fill="none" stroke="black" points="46.2,-200.2 46.2,-231 217.39,-231 217.39,-200.2 46.2,-200.2"/>
<text text-anchor="start" x="53.2" y="-212.4" font-family="Arial" font-size="14.00">user_id </text>
<text text-anchor="start" x="103.01" y="-212.4" font-family="Arial" font-size="14.00" fill="#666666">[varbinary(16)]</text>
<polygon fill="none" stroke="black" points="46.2,-169.4 46.2,-200.2 217.39,-200.2 217.39,-169.4 46.2,-169.4"/>
<text text-anchor="start" x="53.2" y="-181.6" font-family="Arial" font-size="14.00">messages </text>
<text text-anchor="start" x="120.9" y="-181.6" font-family="Arial" font-size="14.00" fill="#666666">[longtext]</text>
<polygon fill="none" stroke="black" points="46.2,-138.6 46.2,-169.4 217.39,-169.4 217.39,-138.6 46.2,-138.6"/>
<text text-anchor="start" x="53.2" y="-150.8" font-family="Arial" font-size="14.00">started_at </text>
<text text-anchor="start" x="119.35" y="-150.8" font-family="Arial" font-size="14.00" fill="#666666">[datetime]</text>
<polygon fill="none" stroke="black" points="46.2,-107.8 46.2,-138.6 217.39,-138.6 217.39,-107.8 46.2,-107.8"/>
<text text-anchor="start" x="53.2" y="-120" font-family="Arial" font-size="14.00">last_activity_at </text>
<text text-anchor="start" x="148.91" y="-120" font-family="Arial" font-size="14.00" fill="#666666">[datetime]</text>
<polygon fill="none" stroke="black" points="46.2,-77 46.2,-107.8 217.39,-107.8 217.39,-77 46.2,-77"/>
<text text-anchor="start" x="53.2" y="-89.2" font-family="Arial" font-size="14.00">created_at </text>
<text text-anchor="start" x="123.25" y="-89.2" font-family="Arial" font-size="14.00" fill="#666666">[datetime]</text>
<polygon fill="none" stroke="black" points="46.2,-46.2 46.2,-77 217.39,-77 217.39,-46.2 46.2,-46.2"/>
<text text-anchor="start" x="53.2" y="-58.4" font-family="Arial" font-size="14.00">updated_at </text>
<text text-anchor="start" x="127.16" y="-58.4" font-family="Arial" font-size="14.00" fill="#666666">[datetime]</text>
<polygon fill="none" stroke="black" stroke-width="3" points="44.7,-44.7 44.7,-329.7 218.89,-329.7 218.89,-44.7 44.7,-44.7"/>
</g>
</g>
</svg>
