<?xml version="1.0" encoding="UTF-8" standalone="no"?>
<!DOCTYPE svg PUBLIC "-//W3C//DTD SVG 1.1//EN"
 "http://www.w3.org/Graphics/SVG/1.1/DTD/svg11.dtd">
<!-- Generated by graphviz version 12.1.2 (20240928.0832)
 -->
<!-- Title: file Pages: 1 -->
<svg width="310pt" height="475pt"
 viewBox="0.00 0.00 309.73 474.80" xmlns="http://www.w3.org/2000/svg" xmlns:xlink="http://www.w3.org/1999/xlink">
<g id="graph0" class="graph" transform="scale(1 1) rotate(0) translate(4 470.8)">
<title>file</title>
<polygon fill="white" stroke="none" points="-4,4 -4,-470.8 305.73,-470.8 305.73,4 -4,4"/>
<!-- file -->
<g id="node1" class="node">
<title>file</title>
<polygon fill="#efefef" stroke="none" points="46.2,-385 46.2,-420.6 255.53,-420.6 255.53,-385 46.2,-385"/>
<polygon fill="none" stroke="black" points="46.2,-385 46.2,-420.6 255.53,-420.6 255.53,-385 46.2,-385"/>
<text text-anchor="start" x="76.63" y="-398.4" font-family="Arial Bold" font-size="18.00">file</text>
<text text-anchor="start" x="100.61" y="-398.4" font-family="Arial" font-size="14.00">    </text>
<text text-anchor="start" x="131.73" y="-398.4" font-family="Arial" font-size="14.00" fill="#666666">[BASE TABLE]</text>
<polygon fill="none" stroke="black" points="46.2,-354.2 46.2,-385 255.53,-385 255.53,-354.2 46.2,-354.2"/>
<text text-anchor="start" x="53.2" y="-366.4" font-family="Arial" font-size="14.00">file_id </text>
<text text-anchor="start" x="93.67" y="-366.4" font-family="Arial" font-size="14.00" fill="#666666">[varbinary(16)]</text>
<polygon fill="none" stroke="black" points="46.2,-323.4 46.2,-354.2 255.53,-354.2 255.53,-323.4 46.2,-323.4"/>
<text text-anchor="start" x="53.2" y="-335.6" font-family="Arial" font-size="14.00">name </text>
<text text-anchor="start" x="92.11" y="-335.6" font-family="Arial" font-size="14.00" fill="#666666">[varchar(256)]</text>
<polygon fill="none" stroke="black" points="46.2,-292.6 46.2,-323.4 255.53,-323.4 255.53,-292.6 46.2,-292.6"/>
<text text-anchor="start" x="53.2" y="-304.8" font-family="Arial" font-size="14.00">description </text>
<text text-anchor="start" x="124.79" y="-304.8" font-family="Arial" font-size="14.00" fill="#666666">[varchar(1024)]</text>
<polygon fill="none" stroke="black" points="46.2,-261.8 46.2,-292.6 255.53,-292.6 255.53,-261.8 46.2,-261.8"/>
<text text-anchor="start" x="53.2" y="-274" font-family="Arial" font-size="14.00">user_id </text>
<text text-anchor="start" x="103.01" y="-274" font-family="Arial" font-size="14.00" fill="#666666">[varbinary(16)]</text>
<polygon fill="none" stroke="black" points="46.2,-231 46.2,-261.8 255.53,-261.8 255.53,-231 46.2,-231"/>
<text text-anchor="start" x="53.2" y="-243.2" font-family="Arial" font-size="14.00">storage_id </text>
<text text-anchor="start" x="122.47" y="-243.2" font-family="Arial" font-size="14.00" fill="#666666">[varbinary(16)]</text>
<polygon fill="none" stroke="black" points="46.2,-200.2 46.2,-231 255.53,-231 255.53,-200.2 46.2,-200.2"/>
<text text-anchor="start" x="53.2" y="-212.4" font-family="Arial" font-size="14.00">file_size </text>
<text text-anchor="start" x="107.67" y="-212.4" font-family="Arial" font-size="14.00" fill="#666666">[bigint(20) unsigned]</text>
<polygon fill="none" stroke="black" points="46.2,-169.4 46.2,-200.2 255.53,-200.2 255.53,-169.4 46.2,-169.4"/>
<text text-anchor="start" x="53.2" y="-181.6" font-family="Arial" font-size="14.00">parent_folder_id </text>
<text text-anchor="start" x="158.28" y="-181.6" font-family="Arial" font-size="14.00" fill="#666666">[varbinary(16)]</text>
<polygon fill="none" stroke="black" points="46.2,-138.6 46.2,-169.4 255.53,-169.4 255.53,-138.6 46.2,-138.6"/>
<text text-anchor="start" x="53.2" y="-150.8" font-family="Arial" font-size="14.00">uploaded_at </text>
<text text-anchor="start" x="134.16" y="-150.8" font-family="Arial" font-size="14.00" fill="#666666">[datetime]</text>
<polygon fill="none" stroke="black" points="46.2,-107.8 46.2,-138.6 255.53,-138.6 255.53,-107.8 46.2,-107.8"/>
<text text-anchor="start" x="53.2" y="-120" font-family="Arial" font-size="14.00">changed_at </text>
<text text-anchor="start" x="130.27" y="-120" font-family="Arial" font-size="14.00" fill="#666666">[datetime]</text>
<polygon fill="none" stroke="black" points="46.2,-77 46.2,-107.8 255.53,-107.8 255.53,-77 46.2,-77"/>
<text text-anchor="start" x="53.2" y="-89.2" font-family="Arial" font-size="14.00">created_at </text>
<text text-anchor="start" x="123.25" y="-89.2" font-family="Arial" font-size="14.00" fill="#666666">[datetime]</text>
<polygon fill="none" stroke="black" points="46.2,-46.2 46.2,-77 255.53,-77 255.53,-46.2 46.2,-46.2"/>
<text text-anchor="start" x="53.2" y="-58.4" font-family="Arial" font-size="14.00">updated_at </text>
<text text-anchor="start" x="127.16" y="-58.4" font-family="Arial" font-size="14.00" fill="#666666">[datetime]</text>
<polygon fill="none" stroke="black" stroke-width="3" points="44.7,-44.7 44.7,-422.1 257.03,-422.1 257.03,-44.7 44.7,-44.7"/>
</g>
</g>
</svg>
