<?xml version="1.0" encoding="UTF-8" standalone="no"?>
<!DOCTYPE svg PUBLIC "-//W3C//DTD SVG 1.1//EN"
 "http://www.w3.org/Graphics/SVG/1.1/DTD/svg11.dtd">
<!-- Generated by graphviz version 12.1.2 (20240928.0832)
 -->
<!-- Title: file_embedding Pages: 1 -->
<svg width="352pt" height="352pt"
 viewBox="0.00 0.00 351.86 351.60" xmlns="http://www.w3.org/2000/svg" xmlns:xlink="http://www.w3.org/1999/xlink">
<g id="graph0" class="graph" transform="scale(1 1) rotate(0) translate(4 347.6)">
<title>file_embedding</title>
<polygon fill="white" stroke="none" points="-4,4 -4,-347.6 347.86,-347.6 347.86,4 -4,4"/>
<!-- file_embedding -->
<g id="node1" class="node">
<title>file_embedding</title>
<polygon fill="#efefef" stroke="none" points="46.2,-261.8 46.2,-297.4 297.66,-297.4 297.66,-261.8 46.2,-261.8"/>
<polygon fill="none" stroke="black" points="46.2,-261.8 46.2,-297.4 297.66,-297.4 297.66,-261.8 46.2,-261.8"/>
<text text-anchor="start" x="53.2" y="-275.2" font-family="Arial Bold" font-size="18.00">file_embedding</text>
<text text-anchor="start" x="166.17" y="-275.2" font-family="Arial" font-size="14.00">    </text>
<text text-anchor="start" x="197.28" y="-275.2" font-family="Arial" font-size="14.00" fill="#666666">[BASE TABLE]</text>
<polygon fill="none" stroke="black" points="46.2,-231 46.2,-261.8 297.66,-261.8 297.66,-231 46.2,-231"/>
<text text-anchor="start" x="53.2" y="-243.2" font-family="Arial" font-size="14.00">file_embedding_id </text>
<text text-anchor="start" x="170.73" y="-243.2" font-family="Arial" font-size="14.00" fill="#666666">[varbinary(16)]</text>
<polygon fill="none" stroke="black" points="46.2,-200.2 46.2,-231 297.66,-231 297.66,-200.2 46.2,-200.2"/>
<text text-anchor="start" x="53.2" y="-212.4" font-family="Arial" font-size="14.00">file_id </text>
<text text-anchor="start" x="93.67" y="-212.4" font-family="Arial" font-size="14.00" fill="#666666">[varbinary(16)]</text>
<polygon fill="none" stroke="black" points="46.2,-169.4 46.2,-200.2 297.66,-200.2 297.66,-169.4 46.2,-169.4"/>
<text text-anchor="start" x="53.2" y="-181.6" font-family="Arial" font-size="14.00">original_text </text>
<text text-anchor="start" x="132.58" y="-181.6" font-family="Arial" font-size="14.00" fill="#666666">[varchar(512)]</text>
<polygon fill="none" stroke="black" points="46.2,-138.6 46.2,-169.4 297.66,-169.4 297.66,-138.6 46.2,-138.6"/>
<text text-anchor="start" x="53.2" y="-150.8" font-family="Arial" font-size="14.00">embedding </text>
<text text-anchor="start" x="126.37" y="-150.8" font-family="Arial" font-size="14.00" fill="#666666">[vector(1024)]</text>
<polygon fill="none" stroke="black" points="46.2,-107.8 46.2,-138.6 297.66,-138.6 297.66,-107.8 46.2,-107.8"/>
<text text-anchor="start" x="53.2" y="-120" font-family="Arial" font-size="14.00">indexed_at </text>
<text text-anchor="start" x="125.59" y="-120" font-family="Arial" font-size="14.00" fill="#666666">[datetime]</text>
<polygon fill="none" stroke="black" points="46.2,-77 46.2,-107.8 297.66,-107.8 297.66,-77 46.2,-77"/>
<text text-anchor="start" x="53.2" y="-89.2" font-family="Arial" font-size="14.00">created_at </text>
<text text-anchor="start" x="123.25" y="-89.2" font-family="Arial" font-size="14.00" fill="#666666">[datetime]</text>
<polygon fill="none" stroke="black" points="46.2,-46.2 46.2,-77 297.66,-77 297.66,-46.2 46.2,-46.2"/>
<text text-anchor="start" x="53.2" y="-58.4" font-family="Arial" font-size="14.00">updated_at </text>
<text text-anchor="start" x="127.16" y="-58.4" font-family="Arial" font-size="14.00" fill="#666666">[datetime]</text>
<polygon fill="none" stroke="black" stroke-width="3" points="44.7,-44.7 44.7,-298.9 299.16,-298.9 299.16,-44.7 44.7,-44.7"/>
</g>
</g>
</svg>
