<?xml version="1.0" encoding="UTF-8" standalone="no"?>
<!DOCTYPE svg PUBLIC "-//W3C//DTD SVG 1.1//EN"
 "http://www.w3.org/Graphics/SVG/1.1/DTD/svg11.dtd">
<!-- Generated by graphviz version 12.1.2 (20240928.0832)
 -->
<!-- Title: folder Pages: 1 -->
<svg width="314pt" height="475pt"
 viewBox="0.00 0.00 313.63 474.80" xmlns="http://www.w3.org/2000/svg" xmlns:xlink="http://www.w3.org/1999/xlink">
<g id="graph0" class="graph" transform="scale(1 1) rotate(0) translate(4 470.8)">
<title>folder</title>
<polygon fill="white" stroke="none" points="-4,4 -4,-470.8 309.63,-470.8 309.63,4 -4,4"/>
<!-- folder -->
<g id="node1" class="node">
<title>folder</title>
<polygon fill="#efefef" stroke="none" points="46.2,-385 46.2,-420.6 259.43,-420.6 259.43,-385 46.2,-385"/>
<polygon fill="none" stroke="black" points="46.2,-385 46.2,-420.6 259.43,-420.6 259.43,-385 46.2,-385"/>
<text text-anchor="start" x="69.08" y="-398.4" font-family="Arial Bold" font-size="18.00">folder</text>
<text text-anchor="start" x="112.06" y="-398.4" font-family="Arial" font-size="14.00">    </text>
<text text-anchor="start" x="143.18" y="-398.4" font-family="Arial" font-size="14.00" fill="#666666">[BASE TABLE]</text>
<polygon fill="none" stroke="black" points="46.2,-354.2 46.2,-385 259.43,-385 259.43,-354.2 46.2,-354.2"/>
<text text-anchor="start" x="53.2" y="-366.4" font-family="Arial" font-size="14.00">folder_id </text>
<text text-anchor="start" x="110.79" y="-366.4" font-family="Arial" font-size="14.00" fill="#666666">[varbinary(16)]</text>
<polygon fill="none" stroke="black" points="46.2,-323.4 46.2,-354.2 259.43,-354.2 259.43,-323.4 46.2,-323.4"/>
<text text-anchor="start" x="53.2" y="-335.6" font-family="Arial" font-size="14.00">parent_id </text>
<text text-anchor="start" x="115.47" y="-335.6" font-family="Arial" font-size="14.00" fill="#666666">[varbinary(16)]</text>
<polygon fill="none" stroke="black" points="46.2,-292.6 46.2,-323.4 259.43,-323.4 259.43,-292.6 46.2,-292.6"/>
<text text-anchor="start" x="53.2" y="-304.8" font-family="Arial" font-size="14.00">name </text>
<text text-anchor="start" x="92.11" y="-304.8" font-family="Arial" font-size="14.00" fill="#666666">[varchar(256)]</text>
<polygon fill="none" stroke="black" points="46.2,-261.8 46.2,-292.6 259.43,-292.6 259.43,-261.8 46.2,-261.8"/>
<text text-anchor="start" x="53.2" y="-274" font-family="Arial" font-size="14.00">description </text>
<text text-anchor="start" x="124.79" y="-274" font-family="Arial" font-size="14.00" fill="#666666">[varchar(1024)]</text>
<polygon fill="none" stroke="black" points="46.2,-231 46.2,-261.8 259.43,-261.8 259.43,-231 46.2,-231"/>
<text text-anchor="start" x="53.2" y="-243.2" font-family="Arial" font-size="14.00">user_id </text>
<text text-anchor="start" x="103.01" y="-243.2" font-family="Arial" font-size="14.00" fill="#666666">[varbinary(16)]</text>
<polygon fill="none" stroke="black" points="46.2,-200.2 46.2,-231 259.43,-231 259.43,-200.2 46.2,-200.2"/>
<text text-anchor="start" x="53.2" y="-212.4" font-family="Arial" font-size="14.00">uploaded_at </text>
<text text-anchor="start" x="134.16" y="-212.4" font-family="Arial" font-size="14.00" fill="#666666">[datetime]</text>
<polygon fill="none" stroke="black" points="46.2,-169.4 46.2,-200.2 259.43,-200.2 259.43,-169.4 46.2,-169.4"/>
<text text-anchor="start" x="53.2" y="-181.6" font-family="Arial" font-size="14.00">changed_at </text>
<text text-anchor="start" x="130.27" y="-181.6" font-family="Arial" font-size="14.00" fill="#666666">[datetime]</text>
<polygon fill="none" stroke="black" points="46.2,-138.6 46.2,-169.4 259.43,-169.4 259.43,-138.6 46.2,-138.6"/>
<text text-anchor="start" x="53.2" y="-150.8" font-family="Arial" font-size="14.00">created_at </text>
<text text-anchor="start" x="123.25" y="-150.8" font-family="Arial" font-size="14.00" fill="#666666">[datetime]</text>
<polygon fill="none" stroke="black" points="46.2,-107.8 46.2,-138.6 259.43,-138.6 259.43,-107.8 46.2,-107.8"/>
<text text-anchor="start" x="53.2" y="-120" font-family="Arial" font-size="14.00">updated_at </text>
<text text-anchor="start" x="127.16" y="-120" font-family="Arial" font-size="14.00" fill="#666666">[datetime]</text>
<polygon fill="none" stroke="black" points="46.2,-77 46.2,-107.8 259.43,-107.8 259.43,-77 46.2,-77"/>
<text text-anchor="start" x="53.2" y="-89.2" font-family="Arial" font-size="14.00">parent_kind </text>
<text text-anchor="start" x="130.25" y="-89.2" font-family="Arial" font-size="14.00" fill="#666666">[tinyint(3) unsigned]</text>
<polygon fill="none" stroke="black" points="46.2,-46.2 46.2,-77 259.43,-77 259.43,-46.2 46.2,-46.2"/>
<text text-anchor="start" x="53.2" y="-58.4" font-family="Arial" font-size="14.00">depth </text>
<text text-anchor="start" x="92.12" y="-58.4" font-family="Arial" font-size="14.00" fill="#666666">[tinyint(3) unsigned]</text>
<polygon fill="none" stroke="black" stroke-width="3" points="44.7,-44.7 44.7,-422.1 260.93,-422.1 260.93,-44.7 44.7,-44.7"/>
</g>
</g>
</svg>
