<?xml version="1.0" encoding="UTF-8" standalone="no"?>
<!DOCTYPE svg PUBLIC "-//W3C//DTD SVG 1.1//EN"
 "http://www.w3.org/Graphics/SVG/1.1/DTD/svg11.dtd">
<!-- Generated by graphviz version 12.1.2 (20240928.0832)
 -->
<!-- Title: podcast Pages: 1 -->
<svg width="316pt" height="475pt"
 viewBox="0.00 0.00 315.96 474.80" xmlns="http://www.w3.org/2000/svg" xmlns:xlink="http://www.w3.org/1999/xlink">
<g id="graph0" class="graph" transform="scale(1 1) rotate(0) translate(4 470.8)">
<title>podcast</title>
<polygon fill="white" stroke="none" points="-4,4 -4,-470.8 311.96,-470.8 311.96,4 -4,4"/>
<!-- podcast -->
<g id="node1" class="node">
<title>podcast</title>
<polygon fill="#efefef" stroke="none" points="46.2,-385 46.2,-420.6 261.76,-420.6 261.76,-385 46.2,-385"/>
<polygon fill="none" stroke="black" points="46.2,-385 46.2,-420.6 261.76,-420.6 261.76,-385 46.2,-385"/>
<text text-anchor="start" x="64.25" y="-398.4" font-family="Arial Bold" font-size="18.00">podcast</text>
<text text-anchor="start" x="119.23" y="-398.4" font-family="Arial" font-size="14.00">    </text>
<text text-anchor="start" x="150.35" y="-398.4" font-family="Arial" font-size="14.00" fill="#666666">[BASE TABLE]</text>
<polygon fill="none" stroke="black" points="46.2,-354.2 46.2,-385 261.76,-385 261.76,-354.2 46.2,-354.2"/>
<text text-anchor="start" x="53.2" y="-366.4" font-family="Arial" font-size="14.00">podcast_id </text>
<text text-anchor="start" x="124.81" y="-366.4" font-family="Arial" font-size="14.00" fill="#666666">[varbinary(16)]</text>
<polygon fill="none" stroke="black" points="46.2,-323.4 46.2,-354.2 261.76,-354.2 261.76,-323.4 46.2,-323.4"/>
<text text-anchor="start" x="53.2" y="-335.6" font-family="Arial" font-size="14.00">name </text>
<text text-anchor="start" x="92.11" y="-335.6" font-family="Arial" font-size="14.00" fill="#666666">[varchar(256)]</text>
<polygon fill="none" stroke="black" points="46.2,-292.6 46.2,-323.4 261.76,-323.4 261.76,-292.6 46.2,-292.6"/>
<text text-anchor="start" x="53.2" y="-304.8" font-family="Arial" font-size="14.00">description </text>
<text text-anchor="start" x="124.79" y="-304.8" font-family="Arial" font-size="14.00" fill="#666666">[varchar(1024)]</text>
<polygon fill="none" stroke="black" points="46.2,-261.8 46.2,-292.6 261.76,-292.6 261.76,-261.8 46.2,-261.8"/>
<text text-anchor="start" x="53.2" y="-274" font-family="Arial" font-size="14.00">user_id </text>
<text text-anchor="start" x="103.01" y="-274" font-family="Arial" font-size="14.00" fill="#666666">[varbinary(16)]</text>
<polygon fill="none" stroke="black" points="46.2,-231 46.2,-261.8 261.76,-261.8 261.76,-231 46.2,-231"/>
<text text-anchor="start" x="53.2" y="-243.2" font-family="Arial" font-size="14.00">used_file_ids </text>
<text text-anchor="start" x="138.81" y="-243.2" font-family="Arial" font-size="14.00" fill="#666666">[longtext]</text>
<polygon fill="none" stroke="black" points="46.2,-200.2 46.2,-231 261.76,-231 261.76,-200.2 46.2,-200.2"/>
<text text-anchor="start" x="53.2" y="-212.4" font-family="Arial" font-size="14.00">podcast_script </text>
<text text-anchor="start" x="147.36" y="-212.4" font-family="Arial" font-size="14.00" fill="#666666">[longtext]</text>
<polygon fill="none" stroke="black" points="46.2,-169.4 46.2,-200.2 261.76,-200.2 261.76,-169.4 46.2,-169.4"/>
<text text-anchor="start" x="53.2" y="-181.6" font-family="Arial" font-size="14.00">podcast_created_at </text>
<text text-anchor="start" x="180.07" y="-181.6" font-family="Arial" font-size="14.00" fill="#666666">[datetime]</text>
<polygon fill="none" stroke="black" points="46.2,-138.6 46.2,-169.4 261.76,-169.4 261.76,-138.6 46.2,-138.6"/>
<text text-anchor="start" x="53.2" y="-150.8" font-family="Arial" font-size="14.00">created_at </text>
<text text-anchor="start" x="123.25" y="-150.8" font-family="Arial" font-size="14.00" fill="#666666">[datetime]</text>
<polygon fill="none" stroke="black" points="46.2,-107.8 46.2,-138.6 261.76,-138.6 261.76,-107.8 46.2,-107.8"/>
<text text-anchor="start" x="53.2" y="-120" font-family="Arial" font-size="14.00">updated_at </text>
<text text-anchor="start" x="127.16" y="-120" font-family="Arial" font-size="14.00" fill="#666666">[datetime]</text>
<polygon fill="none" stroke="black" points="46.2,-77 46.2,-107.8 261.76,-107.8 261.76,-77 46.2,-77"/>
<text text-anchor="start" x="53.2" y="-89.2" font-family="Arial" font-size="14.00">audio_storage_id </text>
<text text-anchor="start" x="164.51" y="-89.2" font-family="Arial" font-size="14.00" fill="#666666">[varbinary(16)]</text>
<polygon fill="none" stroke="black" points="46.2,-46.2 46.2,-77 261.76,-77 261.76,-46.2 46.2,-46.2"/>
<text text-anchor="start" x="53.2" y="-58.4" font-family="Arial" font-size="14.00">project_id </text>
<text text-anchor="start" x="117.79" y="-58.4" font-family="Arial" font-size="14.00" fill="#666666">[varbinary(16)]</text>
<polygon fill="none" stroke="black" stroke-width="3" points="44.7,-44.7 44.7,-422.1 263.26,-422.1 263.26,-44.7 44.7,-44.7"/>
</g>
</g>
</svg>
