<?xml version="1.0" encoding="UTF-8" standalone="no"?>
<!DOCTYPE svg PUBLIC "-//W3C//DTD SVG 1.1//EN"
 "http://www.w3.org/Graphics/SVG/1.1/DTD/svg11.dtd">
<!-- Generated by graphviz version 12.1.2 (20240928.0832)
 -->
<!-- Title: project Pages: 1 -->
<svg width="313pt" height="413pt"
 viewBox="0.00 0.00 312.84 413.20" xmlns="http://www.w3.org/2000/svg" xmlns:xlink="http://www.w3.org/1999/xlink">
<g id="graph0" class="graph" transform="scale(1 1) rotate(0) translate(4 409.2)">
<title>project</title>
<polygon fill="white" stroke="none" points="-4,4 -4,-409.2 308.84,-409.2 308.84,4 -4,4"/>
<!-- project -->
<g id="node1" class="node">
<title>project</title>
<polygon fill="#efefef" stroke="none" points="46.2,-323.4 46.2,-359 258.64,-359 258.64,-323.4 46.2,-323.4"/>
<polygon fill="none" stroke="black" points="46.2,-323.4 46.2,-359 258.64,-359 258.64,-323.4 46.2,-323.4"/>
<text text-anchor="start" x="65.19" y="-336.8" font-family="Arial Bold" font-size="18.00">project</text>
<text text-anchor="start" x="115.16" y="-336.8" font-family="Arial" font-size="14.00">    </text>
<text text-anchor="start" x="146.28" y="-336.8" font-family="Arial" font-size="14.00" fill="#666666">[BASE TABLE]</text>
<polygon fill="none" stroke="black" points="46.2,-292.6 46.2,-323.4 258.64,-323.4 258.64,-292.6 46.2,-292.6"/>
<text text-anchor="start" x="53.2" y="-304.8" font-family="Arial" font-size="14.00">project_id </text>
<text text-anchor="start" x="117.79" y="-304.8" font-family="Arial" font-size="14.00" fill="#666666">[varbinary(16)]</text>
<polygon fill="none" stroke="black" points="46.2,-261.8 46.2,-292.6 258.64,-292.6 258.64,-261.8 46.2,-261.8"/>
<text text-anchor="start" x="53.2" y="-274" font-family="Arial" font-size="14.00">created_by </text>
<text text-anchor="start" x="126.36" y="-274" font-family="Arial" font-size="14.00" fill="#666666">[varbinary(16)]</text>
<polygon fill="none" stroke="black" points="46.2,-231 46.2,-261.8 258.64,-261.8 258.64,-231 46.2,-231"/>
<text text-anchor="start" x="53.2" y="-243.2" font-family="Arial" font-size="14.00">name </text>
<text text-anchor="start" x="92.11" y="-243.2" font-family="Arial" font-size="14.00" fill="#666666">[varchar(256)]</text>
<polygon fill="none" stroke="black" points="46.2,-200.2 46.2,-231 258.64,-231 258.64,-200.2 46.2,-200.2"/>
<text text-anchor="start" x="53.2" y="-212.4" font-family="Arial" font-size="14.00">description </text>
<text text-anchor="start" x="124.79" y="-212.4" font-family="Arial" font-size="14.00" fill="#666666">[varchar(512)]</text>
<polygon fill="none" stroke="black" points="46.2,-169.4 46.2,-200.2 258.64,-200.2 258.64,-169.4 46.2,-169.4"/>
<text text-anchor="start" x="53.2" y="-181.6" font-family="Arial" font-size="14.00">indexed_at </text>
<text text-anchor="start" x="125.59" y="-181.6" font-family="Arial" font-size="14.00" fill="#666666">[datetime]</text>
<polygon fill="none" stroke="black" points="46.2,-138.6 46.2,-169.4 258.64,-169.4 258.64,-138.6 46.2,-138.6"/>
<text text-anchor="start" x="53.2" y="-150.8" font-family="Arial" font-size="14.00">last_seen_at </text>
<text text-anchor="start" x="136.48" y="-150.8" font-family="Arial" font-size="14.00" fill="#666666">[datetime]</text>
<polygon fill="none" stroke="black" points="46.2,-107.8 46.2,-138.6 258.64,-138.6 258.64,-107.8 46.2,-107.8"/>
<text text-anchor="start" x="53.2" y="-120" font-family="Arial" font-size="14.00">last_seen_file_id </text>
<text text-anchor="start" x="161.39" y="-120" font-family="Arial" font-size="14.00" fill="#666666">[varbinary(16)]</text>
<polygon fill="none" stroke="black" points="46.2,-77 46.2,-107.8 258.64,-107.8 258.64,-77 46.2,-77"/>
<text text-anchor="start" x="53.2" y="-89.2" font-family="Arial" font-size="14.00">created_at </text>
<text text-anchor="start" x="123.25" y="-89.2" font-family="Arial" font-size="14.00" fill="#666666">[datetime]</text>
<polygon fill="none" stroke="black" points="46.2,-46.2 46.2,-77 258.64,-77 258.64,-46.2 46.2,-46.2"/>
<text text-anchor="start" x="53.2" y="-58.4" font-family="Arial" font-size="14.00">updated_at </text>
<text text-anchor="start" x="127.16" y="-58.4" font-family="Arial" font-size="14.00" fill="#666666">[datetime]</text>
<polygon fill="none" stroke="black" stroke-width="3" points="44.7,-44.7 44.7,-360.5 260.14,-360.5 260.14,-44.7 44.7,-44.7"/>
</g>
</g>
</svg>
