<?xml version="1.0" encoding="UTF-8" standalone="no"?>
<!DOCTYPE svg PUBLIC "-//W3C//DTD SVG 1.1//EN"
 "http://www.w3.org/Graphics/SVG/1.1/DTD/svg11.dtd">
<!-- Generated by graphviz version 12.1.2 (20240928.0832)
 -->
<!-- Title: refresh_token Pages: 1 -->
<svg width="338pt" height="506pt"
 viewBox="0.00 0.00 337.85 505.60" xmlns="http://www.w3.org/2000/svg" xmlns:xlink="http://www.w3.org/1999/xlink">
<g id="graph0" class="graph" transform="scale(1 1) rotate(0) translate(4 501.6)">
<title>refresh_token</title>
<polygon fill="white" stroke="none" points="-4,4 -4,-501.6 333.85,-501.6 333.85,4 -4,4"/>
<!-- refresh_token -->
<g id="node1" class="node">
<title>refresh_token</title>
<polygon fill="#efefef" stroke="none" points="46.2,-415.8 46.2,-451.4 283.65,-451.4 283.65,-415.8 46.2,-415.8"/>
<polygon fill="none" stroke="black" points="46.2,-415.8 46.2,-451.4 283.65,-451.4 283.65,-415.8 46.2,-415.8"/>
<text text-anchor="start" x="53.2" y="-429.2" font-family="Arial Bold" font-size="18.00">refresh_token</text>
<text text-anchor="start" x="152.16" y="-429.2" font-family="Arial" font-size="14.00">    </text>
<text text-anchor="start" x="183.27" y="-429.2" font-family="Arial" font-size="14.00" fill="#666666">[BASE TABLE]</text>
<polygon fill="none" stroke="black" points="46.2,-385 46.2,-415.8 283.65,-415.8 283.65,-385 46.2,-385"/>
<text text-anchor="start" x="53.2" y="-397.2" font-family="Arial" font-size="14.00">refresh_token_id </text>
<text text-anchor="start" x="161.38" y="-397.2" font-family="Arial" font-size="14.00" fill="#666666">[varbinary(16)]</text>
<polygon fill="none" stroke="black" points="46.2,-354.2 46.2,-385 283.65,-385 283.65,-354.2 46.2,-354.2"/>
<text text-anchor="start" x="53.2" y="-366.4" font-family="Arial" font-size="14.00">user_id </text>
<text text-anchor="start" x="103.01" y="-366.4" font-family="Arial" font-size="14.00" fill="#666666">[varbinary(16)]</text>
<polygon fill="none" stroke="black" points="46.2,-323.4 46.2,-354.2 283.65,-354.2 283.65,-323.4 46.2,-323.4"/>
<text text-anchor="start" x="53.2" y="-335.6" font-family="Arial" font-size="14.00">token_hash </text>
<text text-anchor="start" x="129.48" y="-335.6" font-family="Arial" font-size="14.00" fill="#666666">[varchar(256)]</text>
<polygon fill="none" stroke="black" points="46.2,-292.6 46.2,-323.4 283.65,-323.4 283.65,-292.6 46.2,-292.6"/>
<text text-anchor="start" x="53.2" y="-304.8" font-family="Arial" font-size="14.00">generation </text>
<text text-anchor="start" x="123.25" y="-304.8" font-family="Arial" font-size="14.00" fill="#666666">[int(11)]</text>
<polygon fill="none" stroke="black" points="46.2,-261.8 46.2,-292.6 283.65,-292.6 283.65,-261.8 46.2,-261.8"/>
<text text-anchor="start" x="53.2" y="-274" font-family="Arial" font-size="14.00">ip_address </text>
<text text-anchor="start" x="125.58" y="-274" font-family="Arial" font-size="14.00" fill="#666666">[varchar(64)]</text>
<polygon fill="none" stroke="black" points="46.2,-231 46.2,-261.8 283.65,-261.8 283.65,-231 46.2,-231"/>
<text text-anchor="start" x="53.2" y="-243.2" font-family="Arial" font-size="14.00">user_agent </text>
<text text-anchor="start" x="127.14" y="-243.2" font-family="Arial" font-size="14.00" fill="#666666">[varchar(512)]</text>
<polygon fill="none" stroke="black" points="46.2,-200.2 46.2,-231 283.65,-231 283.65,-200.2 46.2,-200.2"/>
<text text-anchor="start" x="53.2" y="-212.4" font-family="Arial" font-size="14.00">access_token_jti </text>
<text text-anchor="start" x="160.59" y="-212.4" font-family="Arial" font-size="14.00" fill="#666666">[varbinary(16)]</text>
<polygon fill="none" stroke="black" points="46.2,-169.4 46.2,-200.2 283.65,-200.2 283.65,-169.4 46.2,-169.4"/>
<text text-anchor="start" x="53.2" y="-181.6" font-family="Arial" font-size="14.00">activated_at </text>
<text text-anchor="start" x="132.59" y="-181.6" font-family="Arial" font-size="14.00" fill="#666666">[datetime]</text>
<polygon fill="none" stroke="black" points="46.2,-138.6 46.2,-169.4 283.65,-169.4 283.65,-138.6 46.2,-138.6"/>
<text text-anchor="start" x="53.2" y="-150.8" font-family="Arial" font-size="14.00">last_used_at </text>
<text text-anchor="start" x="136.48" y="-150.8" font-family="Arial" font-size="14.00" fill="#666666">[datetime]</text>
<polygon fill="none" stroke="black" points="46.2,-107.8 46.2,-138.6 283.65,-138.6 283.65,-107.8 46.2,-107.8"/>
<text text-anchor="start" x="53.2" y="-120" font-family="Arial" font-size="14.00">expires_at </text>
<text text-anchor="start" x="121.68" y="-120" font-family="Arial" font-size="14.00" fill="#666666">[datetime]</text>
<polygon fill="none" stroke="black" points="46.2,-77 46.2,-107.8 283.65,-107.8 283.65,-77 46.2,-77"/>
<text text-anchor="start" x="53.2" y="-89.2" font-family="Arial" font-size="14.00">created_at </text>
<text text-anchor="start" x="123.25" y="-89.2" font-family="Arial" font-size="14.00" fill="#666666">[datetime]</text>
<polygon fill="none" stroke="black" points="46.2,-46.2 46.2,-77 283.65,-77 283.65,-46.2 46.2,-46.2"/>
<text text-anchor="start" x="53.2" y="-58.4" font-family="Arial" font-size="14.00">updated_at </text>
<text text-anchor="start" x="127.16" y="-58.4" font-family="Arial" font-size="14.00" fill="#666666">[datetime]</text>
<polygon fill="none" stroke="black" stroke-width="3" points="44.7,-44.7 44.7,-452.9 285.15,-452.9 285.15,-44.7 44.7,-44.7"/>
</g>
</g>
</svg>
