<?xml version="1.0" encoding="UTF-8" standalone="no"?>
<!DOCTYPE svg PUBLIC "-//W3C//DTD SVG 1.1//EN"
 "http://www.w3.org/Graphics/SVG/1.1/DTD/svg11.dtd">
<!-- Generated by graphviz version 12.1.2 (20240928.0832)
 -->
<!-- Title: kioku Pages: 1 -->
<svg width="2968pt" height="500pt"
 viewBox="0.00 0.00 2967.81 499.60" xmlns="http://www.w3.org/2000/svg" xmlns:xlink="http://www.w3.org/1999/xlink">
<g id="graph0" class="graph" transform="scale(1 1) rotate(0) translate(4 495.6)">
<title>kioku</title>
<polygon fill="white" stroke="none" points="-4,4 -4,-495.6 2963.81,-495.6 2963.81,4 -4,4"/>
<!-- _sqlx_migrations -->
<g id="node1" class="node">
<title>_sqlx_migrations</title>
<polygon fill="#efefef" stroke="none" points="43.2,-320.4 43.2,-356 306.69,-356 306.69,-320.4 43.2,-320.4"/>
<polygon fill="none" stroke="black" points="43.2,-320.4 43.2,-356 306.69,-356 306.69,-320.4 43.2,-320.4"/>
<text text-anchor="start" x="50.2" y="-333.8" font-family="Arial Bold" font-size="18.00">_sqlx_migrations</text>
<text text-anchor="start" x="175.2" y="-333.8" font-family="Arial" font-size="14.00">    </text>
<text text-anchor="start" x="206.32" y="-333.8" font-family="Arial" font-size="14.00" fill="#666666">[BASE TABLE]</text>
<polygon fill="none" stroke="black" points="43.2,-289.6 43.2,-320.4 306.69,-320.4 306.69,-289.6 43.2,-289.6"/>
<text text-anchor="start" x="50.2" y="-301.8" font-family="Arial" font-size="14.00">version </text>
<text text-anchor="start" x="99.22" y="-301.8" font-family="Arial" font-size="14.00" fill="#666666">[bigint(20)]</text>
<polygon fill="none" stroke="black" points="43.2,-258.8 43.2,-289.6 306.69,-289.6 306.69,-258.8 43.2,-258.8"/>
<text text-anchor="start" x="50.2" y="-271" font-family="Arial" font-size="14.00">description </text>
<text text-anchor="start" x="121.79" y="-271" font-family="Arial" font-size="14.00" fill="#666666">[text]</text>
<polygon fill="none" stroke="black" points="43.2,-228 43.2,-258.8 306.69,-258.8 306.69,-228 43.2,-228"/>
<text text-anchor="start" x="50.2" y="-240.2" font-family="Arial" font-size="14.00">installed_on </text>
<text text-anchor="start" x="128.81" y="-240.2" font-family="Arial" font-size="14.00" fill="#666666">[timestamp]</text>
<polygon fill="none" stroke="black" points="43.2,-197.2 43.2,-228 306.69,-228 306.69,-197.2 43.2,-197.2"/>
<text text-anchor="start" x="50.2" y="-209.4" font-family="Arial" font-size="14.00">success </text>
<text text-anchor="start" x="104.66" y="-209.4" font-family="Arial" font-size="14.00" fill="#666666">[tinyint(1)]</text>
<polygon fill="none" stroke="black" points="43.2,-166.4 43.2,-197.2 306.69,-197.2 306.69,-166.4 43.2,-166.4"/>
<text text-anchor="start" x="50.2" y="-178.6" font-family="Arial" font-size="14.00">checksum </text>
<text text-anchor="start" x="117.11" y="-178.6" font-family="Arial" font-size="14.00" fill="#666666">[blob]</text>
<polygon fill="none" stroke="black" points="43.2,-135.6 43.2,-166.4 306.69,-166.4 306.69,-135.6 43.2,-135.6"/>
<text text-anchor="start" x="50.2" y="-147.8" font-family="Arial" font-size="14.00">execution_time </text>
<text text-anchor="start" x="148.25" y="-147.8" font-family="Arial" font-size="14.00" fill="#666666">[bigint(20)]</text>
</g>
<!-- user -->
<g id="node2" class="node">
<title>user</title>
<polygon fill="#efefef" stroke="none" points="411.41,-397.4 411.41,-433 702.47,-433 702.47,-397.4 411.41,-397.4"/>
<polygon fill="none" stroke="black" points="411.41,-397.4 411.41,-433 702.47,-433 702.47,-397.4 411.41,-397.4"/>
<text text-anchor="start" x="479.7" y="-410.8" font-family="Arial Bold" font-size="18.00">user</text>
<text text-anchor="start" x="509.69" y="-410.8" font-family="Arial" font-size="14.00">    </text>
<text text-anchor="start" x="540.81" y="-410.8" font-family="Arial" font-size="14.00" fill="#666666">[BASE TABLE]</text>
<polygon fill="none" stroke="black" points="411.41,-366.6 411.41,-397.4 702.47,-397.4 702.47,-366.6 411.41,-366.6"/>
<text text-anchor="start" x="418.41" y="-378.8" font-family="Arial" font-size="14.00">user_id </text>
<text text-anchor="start" x="468.22" y="-378.8" font-family="Arial" font-size="14.00" fill="#666666">[varbinary(16)]</text>
<polygon fill="none" stroke="black" points="411.41,-335.8 411.41,-366.6 702.47,-366.6 702.47,-335.8 411.41,-335.8"/>
<text text-anchor="start" x="418.41" y="-348" font-family="Arial" font-size="14.00">display_name </text>
<text text-anchor="start" x="508.69" y="-348" font-family="Arial" font-size="14.00" fill="#666666">[varchar(32)]</text>
<polygon fill="none" stroke="black" points="411.41,-305 411.41,-335.8 702.47,-335.8 702.47,-305 411.41,-305"/>
<text text-anchor="start" x="418.41" y="-317.2" font-family="Arial" font-size="14.00">language_code </text>
<text text-anchor="start" x="518.06" y="-317.2" font-family="Arial" font-size="14.00" fill="#666666">[varchar(7)]</text>
<polygon fill="none" stroke="black" points="411.41,-274.2 411.41,-305 702.47,-305 702.47,-274.2 411.41,-274.2"/>
<text text-anchor="start" x="418.41" y="-286.4" font-family="Arial" font-size="14.00">joined_at </text>
<text text-anchor="start" x="479.13" y="-286.4" font-family="Arial" font-size="14.00" fill="#666666">[datetime]</text>
<polygon fill="none" stroke="black" points="411.41,-243.4 411.41,-274.2 702.47,-274.2 702.47,-243.4 411.41,-243.4"/>
<text text-anchor="start" x="418.41" y="-255.6" font-family="Arial" font-size="14.00">iss </text>
<text text-anchor="start" x="439.41" y="-255.6" font-family="Arial" font-size="14.00" fill="#666666">[varchar(256)]</text>
<polygon fill="none" stroke="black" points="411.41,-212.6 411.41,-243.4 702.47,-243.4 702.47,-212.6 411.41,-212.6"/>
<text text-anchor="start" x="418.41" y="-224.8" font-family="Arial" font-size="14.00">sub </text>
<text text-anchor="start" x="444.88" y="-224.8" font-family="Arial" font-size="14.00" fill="#666666">[varchar(256)]</text>
<polygon fill="none" stroke="black" points="411.41,-181.8 411.41,-212.6 702.47,-212.6 702.47,-181.8 411.41,-181.8"/>
<text text-anchor="start" x="418.41" y="-194" font-family="Arial" font-size="14.00">recent_seen_file_ids </text>
<text text-anchor="start" x="550.72" y="-194" font-family="Arial" font-size="14.00" fill="#666666">[longtext]</text>
<polygon fill="none" stroke="black" points="411.41,-151 411.41,-181.8 702.47,-181.8 702.47,-151 411.41,-151"/>
<text text-anchor="start" x="418.41" y="-163.2" font-family="Arial" font-size="14.00">ai_learning_summary </text>
<text text-anchor="start" x="556.14" y="-163.2" font-family="Arial" font-size="14.00" fill="#666666">[varchar(512)]</text>
<polygon fill="none" stroke="black" points="411.41,-120.2 411.41,-151 702.47,-151 702.47,-120.2 411.41,-120.2"/>
<text text-anchor="start" x="418.41" y="-132.4" font-family="Arial" font-size="14.00">ai_learning_summary_updated_at </text>
<text text-anchor="start" x="634" y="-132.4" font-family="Arial" font-size="14.00" fill="#666666">[datetime]</text>
<polygon fill="none" stroke="black" points="411.41,-89.4 411.41,-120.2 702.47,-120.2 702.47,-89.4 411.41,-89.4"/>
<text text-anchor="start" x="418.41" y="-101.6" font-family="Arial" font-size="14.00">created_at </text>
<text text-anchor="start" x="488.46" y="-101.6" font-family="Arial" font-size="14.00" fill="#666666">[datetime]</text>
<polygon fill="none" stroke="black" points="411.41,-58.6 411.41,-89.4 702.47,-89.4 702.47,-58.6 411.41,-58.6"/>
<text text-anchor="start" x="418.41" y="-70.8" font-family="Arial" font-size="14.00">updated_at </text>
<text text-anchor="start" x="492.37" y="-70.8" font-family="Arial" font-size="14.00" fill="#666666">[datetime]</text>
</g>
<!-- chat_file -->
<g id="node3" class="node">
<title>chat_file</title>
<polygon fill="#efefef" stroke="none" points="807.22,-382 807.22,-417.6 1008.67,-417.6 1008.67,-382 807.22,-382"/>
<polygon fill="none" stroke="black" points="807.22,-382 807.22,-417.6 1008.67,-417.6 1008.67,-382 807.22,-382"/>
<text text-anchor="start" x="814.22" y="-395.4" font-family="Arial Bold" font-size="18.00">chat_file</text>
<text text-anchor="start" x="877.18" y="-395.4" font-family="Arial" font-size="14.00">    </text>
<text text-anchor="start" x="908.3" y="-395.4" font-family="Arial" font-size="14.00" fill="#666666">[BASE TABLE]</text>
<polygon fill="none" stroke="black" points="807.22,-351.2 807.22,-382 1008.67,-382 1008.67,-351.2 807.22,-351.2"/>
<text text-anchor="start" x="814.22" y="-363.4" font-family="Arial" font-size="14.00">chat_file_id </text>
<text text-anchor="start" x="888.93" y="-363.4" font-family="Arial" font-size="14.00" fill="#666666">[varbinary(16)]</text>
<polygon fill="none" stroke="black" points="807.22,-320.4 807.22,-351.2 1008.67,-351.2 1008.67,-320.4 807.22,-320.4"/>
<text text-anchor="start" x="814.22" y="-332.6" font-family="Arial" font-size="14.00">name </text>
<text text-anchor="start" x="853.13" y="-332.6" font-family="Arial" font-size="14.00" fill="#666666">[varchar(256)]</text>
<polygon fill="none" stroke="black" points="807.22,-289.6 807.22,-320.4 1008.67,-320.4 1008.67,-289.6 807.22,-289.6"/>
<text text-anchor="start" x="814.22" y="-301.8" font-family="Arial" font-size="14.00">chat_id </text>
<text text-anchor="start" x="863.25" y="-301.8" font-family="Arial" font-size="14.00" fill="#666666">[varbinary(16)]</text>
<polygon fill="none" stroke="black" points="807.22,-258.8 807.22,-289.6 1008.67,-289.6 1008.67,-258.8 807.22,-258.8"/>
<text text-anchor="start" x="814.22" y="-271" font-family="Arial" font-size="14.00">user_id </text>
<text text-anchor="start" x="864.02" y="-271" font-family="Arial" font-size="14.00" fill="#666666">[varbinary(16)]</text>
<polygon fill="none" stroke="black" points="807.22,-228 807.22,-258.8 1008.67,-258.8 1008.67,-228 807.22,-228"/>
<text text-anchor="start" x="814.22" y="-240.2" font-family="Arial" font-size="14.00">storage_id </text>
<text text-anchor="start" x="883.49" y="-240.2" font-family="Arial" font-size="14.00" fill="#666666">[varbinary(16)]</text>
<polygon fill="none" stroke="black" points="807.22,-197.2 807.22,-228 1008.67,-228 1008.67,-197.2 807.22,-197.2"/>
<text text-anchor="start" x="814.22" y="-209.4" font-family="Arial" font-size="14.00">file_size </text>
<text text-anchor="start" x="868.69" y="-209.4" font-family="Arial" font-size="14.00" fill="#666666">[bigint(20) unsigned]</text>
<polygon fill="none" stroke="black" points="807.22,-166.4 807.22,-197.2 1008.67,-197.2 1008.67,-166.4 807.22,-166.4"/>
<text text-anchor="start" x="814.22" y="-178.6" font-family="Arial" font-size="14.00">uploaded_at </text>
<text text-anchor="start" x="895.18" y="-178.6" font-family="Arial" font-size="14.00" fill="#666666">[datetime]</text>
<polygon fill="none" stroke="black" points="807.22,-135.6 807.22,-166.4 1008.67,-166.4 1008.67,-135.6 807.22,-135.6"/>
<text text-anchor="start" x="814.22" y="-147.8" font-family="Arial" font-size="14.00">changed_at </text>
<text text-anchor="start" x="891.28" y="-147.8" font-family="Arial" font-size="14.00" fill="#666666">[datetime]</text>
<polygon fill="none" stroke="black" points="807.22,-104.8 807.22,-135.6 1008.67,-135.6 1008.67,-104.8 807.22,-104.8"/>
<text text-anchor="start" x="814.22" y="-117" font-family="Arial" font-size="14.00">created_at </text>
<text text-anchor="start" x="884.26" y="-117" font-family="Arial" font-size="14.00" fill="#666666">[datetime]</text>
<polygon fill="none" stroke="black" points="807.22,-74 807.22,-104.8 1008.67,-104.8 1008.67,-74 807.22,-74"/>
<text text-anchor="start" x="814.22" y="-86.2" font-family="Arial" font-size="14.00">updated_at </text>
<text text-anchor="start" x="888.17" y="-86.2" font-family="Arial" font-size="14.00" fill="#666666">[datetime]</text>
</g>
<!-- podcast -->
<g id="node4" class="node">
<title>podcast</title>
<polygon fill="#efefef" stroke="none" points="1112.77,-366.6 1112.77,-402.2 1315.12,-402.2 1315.12,-366.6 1112.77,-366.6"/>
<polygon fill="none" stroke="black" points="1112.77,-366.6 1112.77,-402.2 1315.12,-402.2 1315.12,-366.6 1112.77,-366.6"/>
<text text-anchor="start" x="1124.21" y="-380" font-family="Arial Bold" font-size="18.00">podcast</text>
<text text-anchor="start" x="1179.19" y="-380" font-family="Arial" font-size="14.00">    </text>
<text text-anchor="start" x="1210.31" y="-380" font-family="Arial" font-size="14.00" fill="#666666">[BASE TABLE]</text>
<polygon fill="none" stroke="black" points="1112.77,-335.8 1112.77,-366.6 1315.12,-366.6 1315.12,-335.8 1112.77,-335.8"/>
<text text-anchor="start" x="1119.77" y="-348" font-family="Arial" font-size="14.00">podcast_id </text>
<text text-anchor="start" x="1191.38" y="-348" font-family="Arial" font-size="14.00" fill="#666666">[varbinary(16)]</text>
<polygon fill="none" stroke="black" points="1112.77,-305 1112.77,-335.8 1315.12,-335.8 1315.12,-305 1112.77,-305"/>
<text text-anchor="start" x="1119.77" y="-317.2" font-family="Arial" font-size="14.00">name </text>
<text text-anchor="start" x="1158.68" y="-317.2" font-family="Arial" font-size="14.00" fill="#666666">[varchar(256)]</text>
<polygon fill="none" stroke="black" points="1112.77,-274.2 1112.77,-305 1315.12,-305 1315.12,-274.2 1112.77,-274.2"/>
<text text-anchor="start" x="1119.77" y="-286.4" font-family="Arial" font-size="14.00">description </text>
<text text-anchor="start" x="1191.36" y="-286.4" font-family="Arial" font-size="14.00" fill="#666666">[varchar(1024)]</text>
<polygon fill="none" stroke="black" points="1112.77,-243.4 1112.77,-274.2 1315.12,-274.2 1315.12,-243.4 1112.77,-243.4"/>
<text text-anchor="start" x="1119.77" y="-255.6" font-family="Arial" font-size="14.00">user_id </text>
<text text-anchor="start" x="1169.58" y="-255.6" font-family="Arial" font-size="14.00" fill="#666666">[varbinary(16)]</text>
<polygon fill="none" stroke="black" points="1112.77,-212.6 1112.77,-243.4 1315.12,-243.4 1315.12,-212.6 1112.77,-212.6"/>
<text text-anchor="start" x="1119.77" y="-224.8" font-family="Arial" font-size="14.00">used_file_ids </text>
<text text-anchor="start" x="1205.39" y="-224.8" font-family="Arial" font-size="14.00" fill="#666666">[longtext]</text>
<polygon fill="none" stroke="black" points="1112.77,-181.8 1112.77,-212.6 1315.12,-212.6 1315.12,-181.8 1112.77,-181.8"/>
<text text-anchor="start" x="1119.77" y="-194" font-family="Arial" font-size="14.00">podcast_script </text>
<text text-anchor="start" x="1213.93" y="-194" font-family="Arial" font-size="14.00" fill="#666666">[longtext]</text>
<polygon fill="none" stroke="black" points="1112.77,-151 1112.77,-181.8 1315.12,-181.8 1315.12,-151 1112.77,-151"/>
<text text-anchor="start" x="1119.77" y="-163.2" font-family="Arial" font-size="14.00">podcast_created_at </text>
<text text-anchor="start" x="1246.64" y="-163.2" font-family="Arial" font-size="14.00" fill="#666666">[datetime]</text>
<polygon fill="none" stroke="black" points="1112.77,-120.2 1112.77,-151 1315.12,-151 1315.12,-120.2 1112.77,-120.2"/>
<text text-anchor="start" x="1119.77" y="-132.4" font-family="Arial" font-size="14.00">created_at </text>
<text text-anchor="start" x="1189.82" y="-132.4" font-family="Arial" font-size="14.00" fill="#666666">[datetime]</text>
<polygon fill="none" stroke="black" points="1112.77,-89.4 1112.77,-120.2 1315.12,-120.2 1315.12,-89.4 1112.77,-89.4"/>
<text text-anchor="start" x="1119.77" y="-101.6" font-family="Arial" font-size="14.00">updated_at </text>
<text text-anchor="start" x="1193.73" y="-101.6" font-family="Arial" font-size="14.00" fill="#666666">[datetime]</text>
</g>
<!-- folder -->
<g id="node5" class="node">
<title>folder</title>
<polygon fill="#efefef" stroke="none" points="1419.28,-366.6 1419.28,-402.2 1628.61,-402.2 1628.61,-366.6 1419.28,-366.6"/>
<polygon fill="none" stroke="black" points="1419.28,-366.6 1419.28,-402.2 1628.61,-402.2 1628.61,-366.6 1419.28,-366.6"/>
<text text-anchor="start" x="1440.21" y="-380" font-family="Arial Bold" font-size="18.00">folder</text>
<text text-anchor="start" x="1483.19" y="-380" font-family="Arial" font-size="14.00">    </text>
<text text-anchor="start" x="1514.31" y="-380" font-family="Arial" font-size="14.00" fill="#666666">[BASE TABLE]</text>
<polygon fill="none" stroke="black" points="1419.28,-335.8 1419.28,-366.6 1628.61,-366.6 1628.61,-335.8 1419.28,-335.8"/>
<text text-anchor="start" x="1426.28" y="-348" font-family="Arial" font-size="14.00">folder_id </text>
<text text-anchor="start" x="1483.87" y="-348" font-family="Arial" font-size="14.00" fill="#666666">[varbinary(16)]</text>
<polygon fill="none" stroke="black" points="1419.28,-305 1419.28,-335.8 1628.61,-335.8 1628.61,-305 1419.28,-305"/>
<text text-anchor="start" x="1426.28" y="-317.2" font-family="Arial" font-size="14.00">parent_folder_id </text>
<text text-anchor="start" x="1531.35" y="-317.2" font-family="Arial" font-size="14.00" fill="#666666">[varbinary(16)]</text>
<polygon fill="none" stroke="black" points="1419.28,-274.2 1419.28,-305 1628.61,-305 1628.61,-274.2 1419.28,-274.2"/>
<text text-anchor="start" x="1426.28" y="-286.4" font-family="Arial" font-size="14.00">name </text>
<text text-anchor="start" x="1465.19" y="-286.4" font-family="Arial" font-size="14.00" fill="#666666">[varchar(256)]</text>
<polygon fill="none" stroke="black" points="1419.28,-243.4 1419.28,-274.2 1628.61,-274.2 1628.61,-243.4 1419.28,-243.4"/>
<text text-anchor="start" x="1426.28" y="-255.6" font-family="Arial" font-size="14.00">description </text>
<text text-anchor="start" x="1497.87" y="-255.6" font-family="Arial" font-size="14.00" fill="#666666">[varchar(1024)]</text>
<polygon fill="none" stroke="black" points="1419.28,-212.6 1419.28,-243.4 1628.61,-243.4 1628.61,-212.6 1419.28,-212.6"/>
<text text-anchor="start" x="1426.28" y="-224.8" font-family="Arial" font-size="14.00">user_id </text>
<text text-anchor="start" x="1476.09" y="-224.8" font-family="Arial" font-size="14.00" fill="#666666">[varbinary(16)]</text>
<polygon fill="none" stroke="black" points="1419.28,-181.8 1419.28,-212.6 1628.61,-212.6 1628.61,-181.8 1419.28,-181.8"/>
<text text-anchor="start" x="1426.28" y="-194" font-family="Arial" font-size="14.00">uploaded_at </text>
<text text-anchor="start" x="1507.24" y="-194" font-family="Arial" font-size="14.00" fill="#666666">[datetime]</text>
<polygon fill="none" stroke="black" points="1419.28,-151 1419.28,-181.8 1628.61,-181.8 1628.61,-151 1419.28,-151"/>
<text text-anchor="start" x="1426.28" y="-163.2" font-family="Arial" font-size="14.00">changed_at </text>
<text text-anchor="start" x="1503.35" y="-163.2" font-family="Arial" font-size="14.00" fill="#666666">[datetime]</text>
<polygon fill="none" stroke="black" points="1419.28,-120.2 1419.28,-151 1628.61,-151 1628.61,-120.2 1419.28,-120.2"/>
<text text-anchor="start" x="1426.28" y="-132.4" font-family="Arial" font-size="14.00">created_at </text>
<text text-anchor="start" x="1496.33" y="-132.4" font-family="Arial" font-size="14.00" fill="#666666">[datetime]</text>
<polygon fill="none" stroke="black" points="1419.28,-89.4 1419.28,-120.2 1628.61,-120.2 1628.61,-89.4 1419.28,-89.4"/>
<text text-anchor="start" x="1426.28" y="-101.6" font-family="Arial" font-size="14.00">updated_at </text>
<text text-anchor="start" x="1500.24" y="-101.6" font-family="Arial" font-size="14.00" fill="#666666">[datetime]</text>
</g>
<!-- file_embedding -->
<g id="node6" class="node">
<title>file_embedding</title>
<polygon fill="#efefef" stroke="none" points="1733.22,-335.8 1733.22,-371.4 1984.67,-371.4 1984.67,-335.8 1733.22,-335.8"/>
<polygon fill="none" stroke="black" points="1733.22,-335.8 1733.22,-371.4 1984.67,-371.4 1984.67,-335.8 1733.22,-335.8"/>
<text text-anchor="start" x="1740.22" y="-349.2" font-family="Arial Bold" font-size="18.00">file_embedding</text>
<text text-anchor="start" x="1853.18" y="-349.2" font-family="Arial" font-size="14.00">    </text>
<text text-anchor="start" x="1884.3" y="-349.2" font-family="Arial" font-size="14.00" fill="#666666">[BASE TABLE]</text>
<polygon fill="none" stroke="black" points="1733.22,-305 1733.22,-335.8 1984.67,-335.8 1984.67,-305 1733.22,-305"/>
<text text-anchor="start" x="1740.22" y="-317.2" font-family="Arial" font-size="14.00">file_embedding_id </text>
<text text-anchor="start" x="1857.75" y="-317.2" font-family="Arial" font-size="14.00" fill="#666666">[varbinary(16)]</text>
<polygon fill="none" stroke="black" points="1733.22,-274.2 1733.22,-305 1984.67,-305 1984.67,-274.2 1733.22,-274.2"/>
<text text-anchor="start" x="1740.22" y="-286.4" font-family="Arial" font-size="14.00">file_id </text>
<text text-anchor="start" x="1780.68" y="-286.4" font-family="Arial" font-size="14.00" fill="#666666">[varbinary(16)]</text>
<polygon fill="none" stroke="black" points="1733.22,-243.4 1733.22,-274.2 1984.67,-274.2 1984.67,-243.4 1733.22,-243.4"/>
<text text-anchor="start" x="1740.22" y="-255.6" font-family="Arial" font-size="14.00">original_text </text>
<text text-anchor="start" x="1819.6" y="-255.6" font-family="Arial" font-size="14.00" fill="#666666">[varchar(512)]</text>
<polygon fill="none" stroke="black" points="1733.22,-212.6 1733.22,-243.4 1984.67,-243.4 1984.67,-212.6 1733.22,-212.6"/>
<text text-anchor="start" x="1740.22" y="-224.8" font-family="Arial" font-size="14.00">embedding </text>
<text text-anchor="start" x="1813.38" y="-224.8" font-family="Arial" font-size="14.00" fill="#666666">[vector(1024)]</text>
<polygon fill="none" stroke="black" points="1733.22,-181.8 1733.22,-212.6 1984.67,-212.6 1984.67,-181.8 1733.22,-181.8"/>
<text text-anchor="start" x="1740.22" y="-194" font-family="Arial" font-size="14.00">indexed_at </text>
<text text-anchor="start" x="1812.61" y="-194" font-family="Arial" font-size="14.00" fill="#666666">[datetime]</text>
<polygon fill="none" stroke="black" points="1733.22,-151 1733.22,-181.8 1984.67,-181.8 1984.67,-151 1733.22,-151"/>
<text text-anchor="start" x="1740.22" y="-163.2" font-family="Arial" font-size="14.00">created_at </text>
<text text-anchor="start" x="1810.26" y="-163.2" font-family="Arial" font-size="14.00" fill="#666666">[datetime]</text>
<polygon fill="none" stroke="black" points="1733.22,-120.2 1733.22,-151 1984.67,-151 1984.67,-120.2 1733.22,-120.2"/>
<text text-anchor="start" x="1740.22" y="-132.4" font-family="Arial" font-size="14.00">updated_at </text>
<text text-anchor="start" x="1814.17" y="-132.4" font-family="Arial" font-size="14.00" fill="#666666">[datetime]</text>
</g>
<!-- refresh_token -->
<g id="node7" class="node">
<title>refresh_token</title>
<polygon fill="#efefef" stroke="none" points="2089.22,-412.8 2089.22,-448.4 2326.67,-448.4 2326.67,-412.8 2089.22,-412.8"/>
<polygon fill="none" stroke="black" points="2089.22,-412.8 2089.22,-448.4 2326.67,-448.4 2326.67,-412.8 2089.22,-412.8"/>
<text text-anchor="start" x="2096.22" y="-426.2" font-family="Arial Bold" font-size="18.00">refresh_token</text>
<text text-anchor="start" x="2195.18" y="-426.2" font-family="Arial" font-size="14.00">    </text>
<text text-anchor="start" x="2226.29" y="-426.2" font-family="Arial" font-size="14.00" fill="#666666">[BASE TABLE]</text>
<polygon fill="none" stroke="black" points="2089.22,-382 2089.22,-412.8 2326.67,-412.8 2326.67,-382 2089.22,-382"/>
<text text-anchor="start" x="2096.22" y="-394.2" font-family="Arial" font-size="14.00">refresh_token_id </text>
<text text-anchor="start" x="2204.4" y="-394.2" font-family="Arial" font-size="14.00" fill="#666666">[varbinary(16)]</text>
<polygon fill="none" stroke="black" points="2089.22,-351.2 2089.22,-382 2326.67,-382 2326.67,-351.2 2089.22,-351.2"/>
<text text-anchor="start" x="2096.22" y="-363.4" font-family="Arial" font-size="14.00">user_id </text>
<text text-anchor="start" x="2146.03" y="-363.4" font-family="Arial" font-size="14.00" fill="#666666">[varbinary(16)]</text>
<polygon fill="none" stroke="black" points="2089.22,-320.4 2089.22,-351.2 2326.67,-351.2 2326.67,-320.4 2089.22,-320.4"/>
<text text-anchor="start" x="2096.22" y="-332.6" font-family="Arial" font-size="14.00">token_hash </text>
<text text-anchor="start" x="2172.5" y="-332.6" font-family="Arial" font-size="14.00" fill="#666666">[varchar(256)]</text>
<polygon fill="none" stroke="black" points="2089.22,-289.6 2089.22,-320.4 2326.67,-320.4 2326.67,-289.6 2089.22,-289.6"/>
<text text-anchor="start" x="2096.22" y="-301.8" font-family="Arial" font-size="14.00">generation </text>
<text text-anchor="start" x="2166.28" y="-301.8" font-family="Arial" font-size="14.00" fill="#666666">[int(11)]</text>
<polygon fill="none" stroke="black" points="2089.22,-258.8 2089.22,-289.6 2326.67,-289.6 2326.67,-258.8 2089.22,-258.8"/>
<text text-anchor="start" x="2096.22" y="-271" font-family="Arial" font-size="14.00">ip_address </text>
<text text-anchor="start" x="2168.6" y="-271" font-family="Arial" font-size="14.00" fill="#666666">[varchar(64)]</text>
<polygon fill="none" stroke="black" points="2089.22,-228 2089.22,-258.8 2326.67,-258.8 2326.67,-228 2089.22,-228"/>
<text text-anchor="start" x="2096.22" y="-240.2" font-family="Arial" font-size="14.00">user_agent </text>
<text text-anchor="start" x="2170.17" y="-240.2" font-family="Arial" font-size="14.00" fill="#666666">[varchar(512)]</text>
<polygon fill="none" stroke="black" points="2089.22,-197.2 2089.22,-228 2326.67,-228 2326.67,-197.2 2089.22,-197.2"/>
<text text-anchor="start" x="2096.22" y="-209.4" font-family="Arial" font-size="14.00">access_token_jti </text>
<text text-anchor="start" x="2203.61" y="-209.4" font-family="Arial" font-size="14.00" fill="#666666">[varbinary(16)]</text>
<polygon fill="none" stroke="black" points="2089.22,-166.4 2089.22,-197.2 2326.67,-197.2 2326.67,-166.4 2089.22,-166.4"/>
<text text-anchor="start" x="2096.22" y="-178.6" font-family="Arial" font-size="14.00">activated_at </text>
<text text-anchor="start" x="2175.61" y="-178.6" font-family="Arial" font-size="14.00" fill="#666666">[datetime]</text>
<polygon fill="none" stroke="black" points="2089.22,-135.6 2089.22,-166.4 2326.67,-166.4 2326.67,-135.6 2089.22,-135.6"/>
<text text-anchor="start" x="2096.22" y="-147.8" font-family="Arial" font-size="14.00">last_used_at </text>
<text text-anchor="start" x="2179.5" y="-147.8" font-family="Arial" font-size="14.00" fill="#666666">[datetime]</text>
<polygon fill="none" stroke="black" points="2089.22,-104.8 2089.22,-135.6 2326.67,-135.6 2326.67,-104.8 2089.22,-104.8"/>
<text text-anchor="start" x="2096.22" y="-117" font-family="Arial" font-size="14.00">expires_at </text>
<text text-anchor="start" x="2164.7" y="-117" font-family="Arial" font-size="14.00" fill="#666666">[datetime]</text>
<polygon fill="none" stroke="black" points="2089.22,-74 2089.22,-104.8 2326.67,-104.8 2326.67,-74 2089.22,-74"/>
<text text-anchor="start" x="2096.22" y="-86.2" font-family="Arial" font-size="14.00">created_at </text>
<text text-anchor="start" x="2166.27" y="-86.2" font-family="Arial" font-size="14.00" fill="#666666">[datetime]</text>
<polygon fill="none" stroke="black" points="2089.22,-43.2 2089.22,-74 2326.67,-74 2326.67,-43.2 2089.22,-43.2"/>
<text text-anchor="start" x="2096.22" y="-55.4" font-family="Arial" font-size="14.00">updated_at </text>
<text text-anchor="start" x="2170.18" y="-55.4" font-family="Arial" font-size="14.00" fill="#666666">[datetime]</text>
</g>
<!-- chat -->
<g id="node8" class="node">
<title>chat</title>
<polygon fill="#efefef" stroke="none" points="2431.35,-351.2 2431.35,-386.8 2602.54,-386.8 2602.54,-351.2 2431.35,-351.2"/>
<polygon fill="none" stroke="black" points="2431.35,-351.2 2431.35,-386.8 2602.54,-386.8 2602.54,-351.2 2431.35,-351.2"/>
<text text-anchor="start" x="2439.71" y="-364.6" font-family="Arial Bold" font-size="18.00">chat</text>
<text text-anchor="start" x="2469.69" y="-364.6" font-family="Arial" font-size="14.00">    </text>
<text text-anchor="start" x="2500.81" y="-364.6" font-family="Arial" font-size="14.00" fill="#666666">[BASE TABLE]</text>
<polygon fill="none" stroke="black" points="2431.35,-320.4 2431.35,-351.2 2602.54,-351.2 2602.54,-320.4 2431.35,-320.4"/>
<text text-anchor="start" x="2438.35" y="-332.6" font-family="Arial" font-size="14.00">chat_id </text>
<text text-anchor="start" x="2487.39" y="-332.6" font-family="Arial" font-size="14.00" fill="#666666">[varbinary(16)]</text>
<polygon fill="none" stroke="black" points="2431.35,-289.6 2431.35,-320.4 2602.54,-320.4 2602.54,-289.6 2431.35,-289.6"/>
<text text-anchor="start" x="2438.35" y="-301.8" font-family="Arial" font-size="14.00">name </text>
<text text-anchor="start" x="2477.26" y="-301.8" font-family="Arial" font-size="14.00" fill="#666666">[varchar(256)]</text>
<polygon fill="none" stroke="black" points="2431.35,-258.8 2431.35,-289.6 2602.54,-289.6 2602.54,-258.8 2431.35,-258.8"/>
<text text-anchor="start" x="2438.35" y="-271" font-family="Arial" font-size="14.00">user_id </text>
<text text-anchor="start" x="2488.16" y="-271" font-family="Arial" font-size="14.00" fill="#666666">[varbinary(16)]</text>
<polygon fill="none" stroke="black" points="2431.35,-228 2431.35,-258.8 2602.54,-258.8 2602.54,-228 2431.35,-228"/>
<text text-anchor="start" x="2438.35" y="-240.2" font-family="Arial" font-size="14.00">messages </text>
<text text-anchor="start" x="2506.05" y="-240.2" font-family="Arial" font-size="14.00" fill="#666666">[longtext]</text>
<polygon fill="none" stroke="black" points="2431.35,-197.2 2431.35,-228 2602.54,-228 2602.54,-197.2 2431.35,-197.2"/>
<text text-anchor="start" x="2438.35" y="-209.4" font-family="Arial" font-size="14.00">started_at </text>
<text text-anchor="start" x="2504.5" y="-209.4" font-family="Arial" font-size="14.00" fill="#666666">[datetime]</text>
<polygon fill="none" stroke="black" points="2431.35,-166.4 2431.35,-197.2 2602.54,-197.2 2602.54,-166.4 2431.35,-166.4"/>
<text text-anchor="start" x="2438.35" y="-178.6" font-family="Arial" font-size="14.00">last_activity_at </text>
<text text-anchor="start" x="2534.06" y="-178.6" font-family="Arial" font-size="14.00" fill="#666666">[datetime]</text>
<polygon fill="none" stroke="black" points="2431.35,-135.6 2431.35,-166.4 2602.54,-166.4 2602.54,-135.6 2431.35,-135.6"/>
<text text-anchor="start" x="2438.35" y="-147.8" font-family="Arial" font-size="14.00">created_at </text>
<text text-anchor="start" x="2508.4" y="-147.8" font-family="Arial" font-size="14.00" fill="#666666">[datetime]</text>
<polygon fill="none" stroke="black" points="2431.35,-104.8 2431.35,-135.6 2602.54,-135.6 2602.54,-104.8 2431.35,-104.8"/>
<text text-anchor="start" x="2438.35" y="-117" font-family="Arial" font-size="14.00">updated_at </text>
<text text-anchor="start" x="2512.31" y="-117" font-family="Arial" font-size="14.00" fill="#666666">[datetime]</text>
</g>
<!-- file -->
<g id="node9" class="node">
<title>file</title>
<polygon fill="#efefef" stroke="none" points="2707.28,-397.4 2707.28,-433 2916.61,-433 2916.61,-397.4 2707.28,-397.4"/>
<polygon fill="none" stroke="black" points="2707.28,-397.4 2707.28,-433 2916.61,-433 2916.61,-397.4 2707.28,-397.4"/>
<text text-anchor="start" x="2737.71" y="-410.8" font-family="Arial Bold" font-size="18.00">file</text>
<text text-anchor="start" x="2761.69" y="-410.8" font-family="Arial" font-size="14.00">    </text>
<text text-anchor="start" x="2792.81" y="-410.8" font-family="Arial" font-size="14.00" fill="#666666">[BASE TABLE]</text>
<polygon fill="none" stroke="black" points="2707.28,-366.6 2707.28,-397.4 2916.61,-397.4 2916.61,-366.6 2707.28,-366.6"/>
<text text-anchor="start" x="2714.28" y="-378.8" font-family="Arial" font-size="14.00">file_id </text>
<text text-anchor="start" x="2754.75" y="-378.8" font-family="Arial" font-size="14.00" fill="#666666">[varbinary(16)]</text>
<polygon fill="none" stroke="black" points="2707.28,-335.8 2707.28,-366.6 2916.61,-366.6 2916.61,-335.8 2707.28,-335.8"/>
<text text-anchor="start" x="2714.28" y="-348" font-family="Arial" font-size="14.00">name </text>
<text text-anchor="start" x="2753.19" y="-348" font-family="Arial" font-size="14.00" fill="#666666">[varchar(256)]</text>
<polygon fill="none" stroke="black" points="2707.28,-305 2707.28,-335.8 2916.61,-335.8 2916.61,-305 2707.28,-305"/>
<text text-anchor="start" x="2714.28" y="-317.2" font-family="Arial" font-size="14.00">description </text>
<text text-anchor="start" x="2785.87" y="-317.2" font-family="Arial" font-size="14.00" fill="#666666">[varchar(1024)]</text>
<polygon fill="none" stroke="black" points="2707.28,-274.2 2707.28,-305 2916.61,-305 2916.61,-274.2 2707.28,-274.2"/>
<text text-anchor="start" x="2714.28" y="-286.4" font-family="Arial" font-size="14.00">user_id </text>
<text text-anchor="start" x="2764.09" y="-286.4" font-family="Arial" font-size="14.00" fill="#666666">[varbinary(16)]</text>
<polygon fill="none" stroke="black" points="2707.28,-243.4 2707.28,-274.2 2916.61,-274.2 2916.61,-243.4 2707.28,-243.4"/>
<text text-anchor="start" x="2714.28" y="-255.6" font-family="Arial" font-size="14.00">storage_id </text>
<text text-anchor="start" x="2783.55" y="-255.6" font-family="Arial" font-size="14.00" fill="#666666">[varbinary(16)]</text>
<polygon fill="none" stroke="black" points="2707.28,-212.6 2707.28,-243.4 2916.61,-243.4 2916.61,-212.6 2707.28,-212.6"/>
<text text-anchor="start" x="2714.28" y="-224.8" font-family="Arial" font-size="14.00">file_size </text>
<text text-anchor="start" x="2768.75" y="-224.8" font-family="Arial" font-size="14.00" fill="#666666">[bigint(20) unsigned]</text>
<polygon fill="none" stroke="black" points="2707.28,-181.8 2707.28,-212.6 2916.61,-212.6 2916.61,-181.8 2707.28,-181.8"/>
<text text-anchor="start" x="2714.28" y="-194" font-family="Arial" font-size="14.00">parent_folder_id </text>
<text text-anchor="start" x="2819.35" y="-194" font-family="Arial" font-size="14.00" fill="#666666">[varbinary(16)]</text>
<polygon fill="none" stroke="black" points="2707.28,-151 2707.28,-181.8 2916.61,-181.8 2916.61,-151 2707.28,-151"/>
<text text-anchor="start" x="2714.28" y="-163.2" font-family="Arial" font-size="14.00">uploaded_at </text>
<text text-anchor="start" x="2795.24" y="-163.2" font-family="Arial" font-size="14.00" fill="#666666">[datetime]</text>
<polygon fill="none" stroke="black" points="2707.28,-120.2 2707.28,-151 2916.61,-151 2916.61,-120.2 2707.28,-120.2"/>
<text text-anchor="start" x="2714.28" y="-132.4" font-family="Arial" font-size="14.00">changed_at </text>
<text text-anchor="start" x="2791.35" y="-132.4" font-family="Arial" font-size="14.00" fill="#666666">[datetime]</text>
<polygon fill="none" stroke="black" points="2707.28,-89.4 2707.28,-120.2 2916.61,-120.2 2916.61,-89.4 2707.28,-89.4"/>
<text text-anchor="start" x="2714.28" y="-101.6" font-family="Arial" font-size="14.00">created_at </text>
<text text-anchor="start" x="2784.33" y="-101.6" font-family="Arial" font-size="14.00" fill="#666666">[datetime]</text>
<polygon fill="none" stroke="black" points="2707.28,-58.6 2707.28,-89.4 2916.61,-89.4 2916.61,-58.6 2707.28,-58.6"/>
<text text-anchor="start" x="2714.28" y="-70.8" font-family="Arial" font-size="14.00">updated_at </text>
<text text-anchor="start" x="2788.24" y="-70.8" font-family="Arial" font-size="14.00" fill="#666666">[datetime]</text>
</g>
</g>
</svg>
