<?xml version="1.0" encoding="UTF-8" standalone="no"?>
<!DOCTYPE svg PUBLIC "-//W3C//DTD SVG 1.1//EN"
 "http://www.w3.org/Graphics/SVG/1.1/DTD/svg11.dtd">
<!-- Generated by graphviz version 12.1.2 (20240928.0832)
 -->
<!-- Title: kioku Pages: 1 -->
<svg width="3630pt" height="530pt"
 viewBox="0.00 0.00 3630.37 530.40" xmlns="http://www.w3.org/2000/svg" xmlns:xlink="http://www.w3.org/1999/xlink">
<g id="graph0" class="graph" transform="scale(1 1) rotate(0) translate(4 526.4)">
<title>kioku</title>
<polygon fill="white" stroke="none" points="-4,4 -4,-526.4 3626.37,-526.4 3626.37,4 -4,4"/>
<!-- _sqlx_migrations -->
<g id="node1" class="node">
<title>_sqlx_migrations</title>
<polygon fill="#efefef" stroke="none" points="43.2,-335.8 43.2,-371.4 306.69,-371.4 306.69,-335.8 43.2,-335.8"/>
<polygon fill="none" stroke="black" points="43.2,-335.8 43.2,-371.4 306.69,-371.4 306.69,-335.8 43.2,-335.8"/>
<text text-anchor="start" x="50.2" y="-349.2" font-family="Arial Bold" font-size="18.00">_sqlx_migrations</text>
<text text-anchor="start" x="175.2" y="-349.2" font-family="Arial" font-size="14.00">    </text>
<text text-anchor="start" x="206.32" y="-349.2" font-family="Arial" font-size="14.00" fill="#666666">[BASE TABLE]</text>
<polygon fill="none" stroke="black" points="43.2,-305 43.2,-335.8 306.69,-335.8 306.69,-305 43.2,-305"/>
<text text-anchor="start" x="50.2" y="-317.2" font-family="Arial" font-size="14.00">version </text>
<text text-anchor="start" x="99.22" y="-317.2" font-family="Arial" font-size="14.00" fill="#666666">[bigint(20)]</text>
<polygon fill="none" stroke="black" points="43.2,-274.2 43.2,-305 306.69,-305 306.69,-274.2 43.2,-274.2"/>
<text text-anchor="start" x="50.2" y="-286.4" font-family="Arial" font-size="14.00">description </text>
<text text-anchor="start" x="121.79" y="-286.4" font-family="Arial" font-size="14.00" fill="#666666">[text]</text>
<polygon fill="none" stroke="black" points="43.2,-243.4 43.2,-274.2 306.69,-274.2 306.69,-243.4 43.2,-243.4"/>
<text text-anchor="start" x="50.2" y="-255.6" font-family="Arial" font-size="14.00">installed_on </text>
<text text-anchor="start" x="128.81" y="-255.6" font-family="Arial" font-size="14.00" fill="#666666">[timestamp]</text>
<polygon fill="none" stroke="black" points="43.2,-212.6 43.2,-243.4 306.69,-243.4 306.69,-212.6 43.2,-212.6"/>
<text text-anchor="start" x="50.2" y="-224.8" font-family="Arial" font-size="14.00">success </text>
<text text-anchor="start" x="104.66" y="-224.8" font-family="Arial" font-size="14.00" fill="#666666">[tinyint(1)]</text>
<polygon fill="none" stroke="black" points="43.2,-181.8 43.2,-212.6 306.69,-212.6 306.69,-181.8 43.2,-181.8"/>
<text text-anchor="start" x="50.2" y="-194" font-family="Arial" font-size="14.00">checksum </text>
<text text-anchor="start" x="117.11" y="-194" font-family="Arial" font-size="14.00" fill="#666666">[blob]</text>
<polygon fill="none" stroke="black" points="43.2,-151 43.2,-181.8 306.69,-181.8 306.69,-151 43.2,-151"/>
<text text-anchor="start" x="50.2" y="-163.2" font-family="Arial" font-size="14.00">execution_time </text>
<text text-anchor="start" x="148.25" y="-163.2" font-family="Arial" font-size="14.00" fill="#666666">[bigint(20)]</text>
</g>
<!-- user -->
<g id="node2" class="node">
<title>user</title>
<polygon fill="#efefef" stroke="none" points="411.41,-412.8 411.41,-448.4 702.47,-448.4 702.47,-412.8 411.41,-412.8"/>
<polygon fill="none" stroke="black" points="411.41,-412.8 411.41,-448.4 702.47,-448.4 702.47,-412.8 411.41,-412.8"/>
<text text-anchor="start" x="479.7" y="-426.2" font-family="Arial Bold" font-size="18.00">user</text>
<text text-anchor="start" x="509.69" y="-426.2" font-family="Arial" font-size="14.00">    </text>
<text text-anchor="start" x="540.81" y="-426.2" font-family="Arial" font-size="14.00" fill="#666666">[BASE TABLE]</text>
<polygon fill="none" stroke="black" points="411.41,-382 411.41,-412.8 702.47,-412.8 702.47,-382 411.41,-382"/>
<text text-anchor="start" x="418.41" y="-394.2" font-family="Arial" font-size="14.00">user_id </text>
<text text-anchor="start" x="468.22" y="-394.2" font-family="Arial" font-size="14.00" fill="#666666">[varbinary(16)]</text>
<polygon fill="none" stroke="black" points="411.41,-351.2 411.41,-382 702.47,-382 702.47,-351.2 411.41,-351.2"/>
<text text-anchor="start" x="418.41" y="-363.4" font-family="Arial" font-size="14.00">display_name </text>
<text text-anchor="start" x="508.69" y="-363.4" font-family="Arial" font-size="14.00" fill="#666666">[varchar(32)]</text>
<polygon fill="none" stroke="black" points="411.41,-320.4 411.41,-351.2 702.47,-351.2 702.47,-320.4 411.41,-320.4"/>
<text text-anchor="start" x="418.41" y="-332.6" font-family="Arial" font-size="14.00">language_code </text>
<text text-anchor="start" x="518.06" y="-332.6" font-family="Arial" font-size="14.00" fill="#666666">[varchar(7)]</text>
<polygon fill="none" stroke="black" points="411.41,-289.6 411.41,-320.4 702.47,-320.4 702.47,-289.6 411.41,-289.6"/>
<text text-anchor="start" x="418.41" y="-301.8" font-family="Arial" font-size="14.00">joined_at </text>
<text text-anchor="start" x="479.13" y="-301.8" font-family="Arial" font-size="14.00" fill="#666666">[datetime]</text>
<polygon fill="none" stroke="black" points="411.41,-258.8 411.41,-289.6 702.47,-289.6 702.47,-258.8 411.41,-258.8"/>
<text text-anchor="start" x="418.41" y="-271" font-family="Arial" font-size="14.00">iss </text>
<text text-anchor="start" x="439.41" y="-271" font-family="Arial" font-size="14.00" fill="#666666">[varchar(256)]</text>
<polygon fill="none" stroke="black" points="411.41,-228 411.41,-258.8 702.47,-258.8 702.47,-228 411.41,-228"/>
<text text-anchor="start" x="418.41" y="-240.2" font-family="Arial" font-size="14.00">sub </text>
<text text-anchor="start" x="444.88" y="-240.2" font-family="Arial" font-size="14.00" fill="#666666">[varchar(256)]</text>
<polygon fill="none" stroke="black" points="411.41,-197.2 411.41,-228 702.47,-228 702.47,-197.2 411.41,-197.2"/>
<text text-anchor="start" x="418.41" y="-209.4" font-family="Arial" font-size="14.00">recent_seen_file_ids </text>
<text text-anchor="start" x="550.72" y="-209.4" font-family="Arial" font-size="14.00" fill="#666666">[longtext]</text>
<polygon fill="none" stroke="black" points="411.41,-166.4 411.41,-197.2 702.47,-197.2 702.47,-166.4 411.41,-166.4"/>
<text text-anchor="start" x="418.41" y="-178.6" font-family="Arial" font-size="14.00">ai_learning_summary </text>
<text text-anchor="start" x="556.14" y="-178.6" font-family="Arial" font-size="14.00" fill="#666666">[varchar(512)]</text>
<polygon fill="none" stroke="black" points="411.41,-135.6 411.41,-166.4 702.47,-166.4 702.47,-135.6 411.41,-135.6"/>
<text text-anchor="start" x="418.41" y="-147.8" font-family="Arial" font-size="14.00">ai_learning_summary_updated_at </text>
<text text-anchor="start" x="634" y="-147.8" font-family="Arial" font-size="14.00" fill="#666666">[datetime]</text>
<polygon fill="none" stroke="black" points="411.41,-104.8 411.41,-135.6 702.47,-135.6 702.47,-104.8 411.41,-104.8"/>
<text text-anchor="start" x="418.41" y="-117" font-family="Arial" font-size="14.00">created_at </text>
<text text-anchor="start" x="488.46" y="-117" font-family="Arial" font-size="14.00" fill="#666666">[datetime]</text>
<polygon fill="none" stroke="black" points="411.41,-74 411.41,-104.8 702.47,-104.8 702.47,-74 411.41,-74"/>
<text text-anchor="start" x="418.41" y="-86.2" font-family="Arial" font-size="14.00">updated_at </text>
<text text-anchor="start" x="492.37" y="-86.2" font-family="Arial" font-size="14.00" fill="#666666">[datetime]</text>
</g>
<!-- chat_file -->
<g id="node3" class="node">
<title>chat_file</title>
<polygon fill="#efefef" stroke="none" points="807.22,-397.4 807.22,-433 1008.67,-433 1008.67,-397.4 807.22,-397.4"/>
<polygon fill="none" stroke="black" points="807.22,-397.4 807.22,-433 1008.67,-433 1008.67,-397.4 807.22,-397.4"/>
<text text-anchor="start" x="814.22" y="-410.8" font-family="Arial Bold" font-size="18.00">chat_file</text>
<text text-anchor="start" x="877.18" y="-410.8" font-family="Arial" font-size="14.00">    </text>
<text text-anchor="start" x="908.3" y="-410.8" font-family="Arial" font-size="14.00" fill="#666666">[BASE TABLE]</text>
<polygon fill="none" stroke="black" points="807.22,-366.6 807.22,-397.4 1008.67,-397.4 1008.67,-366.6 807.22,-366.6"/>
<text text-anchor="start" x="814.22" y="-378.8" font-family="Arial" font-size="14.00">chat_file_id </text>
<text text-anchor="start" x="888.93" y="-378.8" font-family="Arial" font-size="14.00" fill="#666666">[varbinary(16)]</text>
<polygon fill="none" stroke="black" points="807.22,-335.8 807.22,-366.6 1008.67,-366.6 1008.67,-335.8 807.22,-335.8"/>
<text text-anchor="start" x="814.22" y="-348" font-family="Arial" font-size="14.00">name </text>
<text text-anchor="start" x="853.13" y="-348" font-family="Arial" font-size="14.00" fill="#666666">[varchar(256)]</text>
<polygon fill="none" stroke="black" points="807.22,-305 807.22,-335.8 1008.67,-335.8 1008.67,-305 807.22,-305"/>
<text text-anchor="start" x="814.22" y="-317.2" font-family="Arial" font-size="14.00">chat_id </text>
<text text-anchor="start" x="863.25" y="-317.2" font-family="Arial" font-size="14.00" fill="#666666">[varbinary(16)]</text>
<polygon fill="none" stroke="black" points="807.22,-274.2 807.22,-305 1008.67,-305 1008.67,-274.2 807.22,-274.2"/>
<text text-anchor="start" x="814.22" y="-286.4" font-family="Arial" font-size="14.00">user_id </text>
<text text-anchor="start" x="864.02" y="-286.4" font-family="Arial" font-size="14.00" fill="#666666">[varbinary(16)]</text>
<polygon fill="none" stroke="black" points="807.22,-243.4 807.22,-274.2 1008.67,-274.2 1008.67,-243.4 807.22,-243.4"/>
<text text-anchor="start" x="814.22" y="-255.6" font-family="Arial" font-size="14.00">storage_id </text>
<text text-anchor="start" x="883.49" y="-255.6" font-family="Arial" font-size="14.00" fill="#666666">[varbinary(16)]</text>
<polygon fill="none" stroke="black" points="807.22,-212.6 807.22,-243.4 1008.67,-243.4 1008.67,-212.6 807.22,-212.6"/>
<text text-anchor="start" x="814.22" y="-224.8" font-family="Arial" font-size="14.00">file_size </text>
<text text-anchor="start" x="868.69" y="-224.8" font-family="Arial" font-size="14.00" fill="#666666">[bigint(20) unsigned]</text>
<polygon fill="none" stroke="black" points="807.22,-181.8 807.22,-212.6 1008.67,-212.6 1008.67,-181.8 807.22,-181.8"/>
<text text-anchor="start" x="814.22" y="-194" font-family="Arial" font-size="14.00">uploaded_at </text>
<text text-anchor="start" x="895.18" y="-194" font-family="Arial" font-size="14.00" fill="#666666">[datetime]</text>
<polygon fill="none" stroke="black" points="807.22,-151 807.22,-181.8 1008.67,-181.8 1008.67,-151 807.22,-151"/>
<text text-anchor="start" x="814.22" y="-163.2" font-family="Arial" font-size="14.00">changed_at </text>
<text text-anchor="start" x="891.28" y="-163.2" font-family="Arial" font-size="14.00" fill="#666666">[datetime]</text>
<polygon fill="none" stroke="black" points="807.22,-120.2 807.22,-151 1008.67,-151 1008.67,-120.2 807.22,-120.2"/>
<text text-anchor="start" x="814.22" y="-132.4" font-family="Arial" font-size="14.00">created_at </text>
<text text-anchor="start" x="884.26" y="-132.4" font-family="Arial" font-size="14.00" fill="#666666">[datetime]</text>
<polygon fill="none" stroke="black" points="807.22,-89.4 807.22,-120.2 1008.67,-120.2 1008.67,-89.4 807.22,-89.4"/>
<text text-anchor="start" x="814.22" y="-101.6" font-family="Arial" font-size="14.00">updated_at </text>
<text text-anchor="start" x="888.17" y="-101.6" font-family="Arial" font-size="14.00" fill="#666666">[datetime]</text>
</g>
<!-- podcast -->
<g id="node4" class="node">
<title>podcast</title>
<polygon fill="#efefef" stroke="none" points="1112.77,-382 1112.77,-417.6 1315.12,-417.6 1315.12,-382 1112.77,-382"/>
<polygon fill="none" stroke="black" points="1112.77,-382 1112.77,-417.6 1315.12,-417.6 1315.12,-382 1112.77,-382"/>
<text text-anchor="start" x="1124.21" y="-395.4" font-family="Arial Bold" font-size="18.00">podcast</text>
<text text-anchor="start" x="1179.19" y="-395.4" font-family="Arial" font-size="14.00">    </text>
<text text-anchor="start" x="1210.31" y="-395.4" font-family="Arial" font-size="14.00" fill="#666666">[BASE TABLE]</text>
<polygon fill="none" stroke="black" points="1112.77,-351.2 1112.77,-382 1315.12,-382 1315.12,-351.2 1112.77,-351.2"/>
<text text-anchor="start" x="1119.77" y="-363.4" font-family="Arial" font-size="14.00">podcast_id </text>
<text text-anchor="start" x="1191.38" y="-363.4" font-family="Arial" font-size="14.00" fill="#666666">[varbinary(16)]</text>
<polygon fill="none" stroke="black" points="1112.77,-320.4 1112.77,-351.2 1315.12,-351.2 1315.12,-320.4 1112.77,-320.4"/>
<text text-anchor="start" x="1119.77" y="-332.6" font-family="Arial" font-size="14.00">name </text>
<text text-anchor="start" x="1158.68" y="-332.6" font-family="Arial" font-size="14.00" fill="#666666">[varchar(256)]</text>
<polygon fill="none" stroke="black" points="1112.77,-289.6 1112.77,-320.4 1315.12,-320.4 1315.12,-289.6 1112.77,-289.6"/>
<text text-anchor="start" x="1119.77" y="-301.8" font-family="Arial" font-size="14.00">description </text>
<text text-anchor="start" x="1191.36" y="-301.8" font-family="Arial" font-size="14.00" fill="#666666">[varchar(1024)]</text>
<polygon fill="none" stroke="black" points="1112.77,-258.8 1112.77,-289.6 1315.12,-289.6 1315.12,-258.8 1112.77,-258.8"/>
<text text-anchor="start" x="1119.77" y="-271" font-family="Arial" font-size="14.00">user_id </text>
<text text-anchor="start" x="1169.58" y="-271" font-family="Arial" font-size="14.00" fill="#666666">[varbinary(16)]</text>
<polygon fill="none" stroke="black" points="1112.77,-228 1112.77,-258.8 1315.12,-258.8 1315.12,-228 1112.77,-228"/>
<text text-anchor="start" x="1119.77" y="-240.2" font-family="Arial" font-size="14.00">used_file_ids </text>
<text text-anchor="start" x="1205.39" y="-240.2" font-family="Arial" font-size="14.00" fill="#666666">[longtext]</text>
<polygon fill="none" stroke="black" points="1112.77,-197.2 1112.77,-228 1315.12,-228 1315.12,-197.2 1112.77,-197.2"/>
<text text-anchor="start" x="1119.77" y="-209.4" font-family="Arial" font-size="14.00">podcast_script </text>
<text text-anchor="start" x="1213.93" y="-209.4" font-family="Arial" font-size="14.00" fill="#666666">[longtext]</text>
<polygon fill="none" stroke="black" points="1112.77,-166.4 1112.77,-197.2 1315.12,-197.2 1315.12,-166.4 1112.77,-166.4"/>
<text text-anchor="start" x="1119.77" y="-178.6" font-family="Arial" font-size="14.00">podcast_created_at </text>
<text text-anchor="start" x="1246.64" y="-178.6" font-family="Arial" font-size="14.00" fill="#666666">[datetime]</text>
<polygon fill="none" stroke="black" points="1112.77,-135.6 1112.77,-166.4 1315.12,-166.4 1315.12,-135.6 1112.77,-135.6"/>
<text text-anchor="start" x="1119.77" y="-147.8" font-family="Arial" font-size="14.00">created_at </text>
<text text-anchor="start" x="1189.82" y="-147.8" font-family="Arial" font-size="14.00" fill="#666666">[datetime]</text>
<polygon fill="none" stroke="black" points="1112.77,-104.8 1112.77,-135.6 1315.12,-135.6 1315.12,-104.8 1112.77,-104.8"/>
<text text-anchor="start" x="1119.77" y="-117" font-family="Arial" font-size="14.00">updated_at </text>
<text text-anchor="start" x="1193.73" y="-117" font-family="Arial" font-size="14.00" fill="#666666">[datetime]</text>
</g>
<!-- folder -->
<g id="node5" class="node">
<title>folder</title>
<polygon fill="#efefef" stroke="none" points="1419.33,-412.8 1419.33,-448.4 1632.56,-448.4 1632.56,-412.8 1419.33,-412.8"/>
<polygon fill="none" stroke="black" points="1419.33,-412.8 1419.33,-448.4 1632.56,-448.4 1632.56,-412.8 1419.33,-412.8"/>
<text text-anchor="start" x="1442.21" y="-426.2" font-family="Arial Bold" font-size="18.00">folder</text>
<text text-anchor="start" x="1485.19" y="-426.2" font-family="Arial" font-size="14.00">    </text>
<text text-anchor="start" x="1516.31" y="-426.2" font-family="Arial" font-size="14.00" fill="#666666">[BASE TABLE]</text>
<polygon fill="none" stroke="black" points="1419.33,-382 1419.33,-412.8 1632.56,-412.8 1632.56,-382 1419.33,-382"/>
<text text-anchor="start" x="1426.33" y="-394.2" font-family="Arial" font-size="14.00">folder_id </text>
<text text-anchor="start" x="1483.92" y="-394.2" font-family="Arial" font-size="14.00" fill="#666666">[varbinary(16)]</text>
<polygon fill="none" stroke="black" points="1419.33,-351.2 1419.33,-382 1632.56,-382 1632.56,-351.2 1419.33,-351.2"/>
<text text-anchor="start" x="1426.33" y="-363.4" font-family="Arial" font-size="14.00">parent_id </text>
<text text-anchor="start" x="1488.6" y="-363.4" font-family="Arial" font-size="14.00" fill="#666666">[varbinary(16)]</text>
<polygon fill="none" stroke="black" points="1419.33,-320.4 1419.33,-351.2 1632.56,-351.2 1632.56,-320.4 1419.33,-320.4"/>
<text text-anchor="start" x="1426.33" y="-332.6" font-family="Arial" font-size="14.00">name </text>
<text text-anchor="start" x="1465.24" y="-332.6" font-family="Arial" font-size="14.00" fill="#666666">[varchar(256)]</text>
<polygon fill="none" stroke="black" points="1419.33,-289.6 1419.33,-320.4 1632.56,-320.4 1632.56,-289.6 1419.33,-289.6"/>
<text text-anchor="start" x="1426.33" y="-301.8" font-family="Arial" font-size="14.00">description </text>
<text text-anchor="start" x="1497.92" y="-301.8" font-family="Arial" font-size="14.00" fill="#666666">[varchar(1024)]</text>
<polygon fill="none" stroke="black" points="1419.33,-258.8 1419.33,-289.6 1632.56,-289.6 1632.56,-258.8 1419.33,-258.8"/>
<text text-anchor="start" x="1426.33" y="-271" font-family="Arial" font-size="14.00">user_id </text>
<text text-anchor="start" x="1476.13" y="-271" font-family="Arial" font-size="14.00" fill="#666666">[varbinary(16)]</text>
<polygon fill="none" stroke="black" points="1419.33,-228 1419.33,-258.8 1632.56,-258.8 1632.56,-228 1419.33,-228"/>
<text text-anchor="start" x="1426.33" y="-240.2" font-family="Arial" font-size="14.00">uploaded_at </text>
<text text-anchor="start" x="1507.29" y="-240.2" font-family="Arial" font-size="14.00" fill="#666666">[datetime]</text>
<polygon fill="none" stroke="black" points="1419.33,-197.2 1419.33,-228 1632.56,-228 1632.56,-197.2 1419.33,-197.2"/>
<text text-anchor="start" x="1426.33" y="-209.4" font-family="Arial" font-size="14.00">changed_at </text>
<text text-anchor="start" x="1503.4" y="-209.4" font-family="Arial" font-size="14.00" fill="#666666">[datetime]</text>
<polygon fill="none" stroke="black" points="1419.33,-166.4 1419.33,-197.2 1632.56,-197.2 1632.56,-166.4 1419.33,-166.4"/>
<text text-anchor="start" x="1426.33" y="-178.6" font-family="Arial" font-size="14.00">created_at </text>
<text text-anchor="start" x="1496.37" y="-178.6" font-family="Arial" font-size="14.00" fill="#666666">[datetime]</text>
<polygon fill="none" stroke="black" points="1419.33,-135.6 1419.33,-166.4 1632.56,-166.4 1632.56,-135.6 1419.33,-135.6"/>
<text text-anchor="start" x="1426.33" y="-147.8" font-family="Arial" font-size="14.00">updated_at </text>
<text text-anchor="start" x="1500.28" y="-147.8" font-family="Arial" font-size="14.00" fill="#666666">[datetime]</text>
<polygon fill="none" stroke="black" points="1419.33,-104.8 1419.33,-135.6 1632.56,-135.6 1632.56,-104.8 1419.33,-104.8"/>
<text text-anchor="start" x="1426.33" y="-117" font-family="Arial" font-size="14.00">parent_kind </text>
<text text-anchor="start" x="1503.38" y="-117" font-family="Arial" font-size="14.00" fill="#666666">[tinyint(3) unsigned]</text>
<polygon fill="none" stroke="black" points="1419.33,-74 1419.33,-104.8 1632.56,-104.8 1632.56,-74 1419.33,-74"/>
<text text-anchor="start" x="1426.33" y="-86.2" font-family="Arial" font-size="14.00">depth </text>
<text text-anchor="start" x="1465.25" y="-86.2" font-family="Arial" font-size="14.00" fill="#666666">[tinyint(3) unsigned]</text>
</g>
<!-- file_embedding -->
<g id="node6" class="node">
<title>file_embedding</title>
<polygon fill="#efefef" stroke="none" points="1737.22,-351.2 1737.22,-386.8 1988.67,-386.8 1988.67,-351.2 1737.22,-351.2"/>
<polygon fill="none" stroke="black" points="1737.22,-351.2 1737.22,-386.8 1988.67,-386.8 1988.67,-351.2 1737.22,-351.2"/>
<text text-anchor="start" x="1744.22" y="-364.6" font-family="Arial Bold" font-size="18.00">file_embedding</text>
<text text-anchor="start" x="1857.18" y="-364.6" font-family="Arial" font-size="14.00">    </text>
<text text-anchor="start" x="1888.3" y="-364.6" font-family="Arial" font-size="14.00" fill="#666666">[BASE TABLE]</text>
<polygon fill="none" stroke="black" points="1737.22,-320.4 1737.22,-351.2 1988.67,-351.2 1988.67,-320.4 1737.22,-320.4"/>
<text text-anchor="start" x="1744.22" y="-332.6" font-family="Arial" font-size="14.00">file_embedding_id </text>
<text text-anchor="start" x="1861.75" y="-332.6" font-family="Arial" font-size="14.00" fill="#666666">[varbinary(16)]</text>
<polygon fill="none" stroke="black" points="1737.22,-289.6 1737.22,-320.4 1988.67,-320.4 1988.67,-289.6 1737.22,-289.6"/>
<text text-anchor="start" x="1744.22" y="-301.8" font-family="Arial" font-size="14.00">file_id </text>
<text text-anchor="start" x="1784.68" y="-301.8" font-family="Arial" font-size="14.00" fill="#666666">[varbinary(16)]</text>
<polygon fill="none" stroke="black" points="1737.22,-258.8 1737.22,-289.6 1988.67,-289.6 1988.67,-258.8 1737.22,-258.8"/>
<text text-anchor="start" x="1744.22" y="-271" font-family="Arial" font-size="14.00">original_text </text>
<text text-anchor="start" x="1823.6" y="-271" font-family="Arial" font-size="14.00" fill="#666666">[varchar(512)]</text>
<polygon fill="none" stroke="black" points="1737.22,-228 1737.22,-258.8 1988.67,-258.8 1988.67,-228 1737.22,-228"/>
<text text-anchor="start" x="1744.22" y="-240.2" font-family="Arial" font-size="14.00">embedding </text>
<text text-anchor="start" x="1817.38" y="-240.2" font-family="Arial" font-size="14.00" fill="#666666">[vector(1024)]</text>
<polygon fill="none" stroke="black" points="1737.22,-197.2 1737.22,-228 1988.67,-228 1988.67,-197.2 1737.22,-197.2"/>
<text text-anchor="start" x="1744.22" y="-209.4" font-family="Arial" font-size="14.00">indexed_at </text>
<text text-anchor="start" x="1816.61" y="-209.4" font-family="Arial" font-size="14.00" fill="#666666">[datetime]</text>
<polygon fill="none" stroke="black" points="1737.22,-166.4 1737.22,-197.2 1988.67,-197.2 1988.67,-166.4 1737.22,-166.4"/>
<text text-anchor="start" x="1744.22" y="-178.6" font-family="Arial" font-size="14.00">created_at </text>
<text text-anchor="start" x="1814.26" y="-178.6" font-family="Arial" font-size="14.00" fill="#666666">[datetime]</text>
<polygon fill="none" stroke="black" points="1737.22,-135.6 1737.22,-166.4 1988.67,-166.4 1988.67,-135.6 1737.22,-135.6"/>
<text text-anchor="start" x="1744.22" y="-147.8" font-family="Arial" font-size="14.00">updated_at </text>
<text text-anchor="start" x="1818.17" y="-147.8" font-family="Arial" font-size="14.00" fill="#666666">[datetime]</text>
</g>
<!-- refresh_token -->
<g id="node7" class="node">
<title>refresh_token</title>
<polygon fill="#efefef" stroke="none" points="2093.22,-428.2 2093.22,-463.8 2330.67,-463.8 2330.67,-428.2 2093.22,-428.2"/>
<polygon fill="none" stroke="black" points="2093.22,-428.2 2093.22,-463.8 2330.67,-463.8 2330.67,-428.2 2093.22,-428.2"/>
<text text-anchor="start" x="2100.22" y="-441.6" font-family="Arial Bold" font-size="18.00">refresh_token</text>
<text text-anchor="start" x="2199.18" y="-441.6" font-family="Arial" font-size="14.00">    </text>
<text text-anchor="start" x="2230.29" y="-441.6" font-family="Arial" font-size="14.00" fill="#666666">[BASE TABLE]</text>
<polygon fill="none" stroke="black" points="2093.22,-397.4 2093.22,-428.2 2330.67,-428.2 2330.67,-397.4 2093.22,-397.4"/>
<text text-anchor="start" x="2100.22" y="-409.6" font-family="Arial" font-size="14.00">refresh_token_id </text>
<text text-anchor="start" x="2208.4" y="-409.6" font-family="Arial" font-size="14.00" fill="#666666">[varbinary(16)]</text>
<polygon fill="none" stroke="black" points="2093.22,-366.6 2093.22,-397.4 2330.67,-397.4 2330.67,-366.6 2093.22,-366.6"/>
<text text-anchor="start" x="2100.22" y="-378.8" font-family="Arial" font-size="14.00">user_id </text>
<text text-anchor="start" x="2150.03" y="-378.8" font-family="Arial" font-size="14.00" fill="#666666">[varbinary(16)]</text>
<polygon fill="none" stroke="black" points="2093.22,-335.8 2093.22,-366.6 2330.67,-366.6 2330.67,-335.8 2093.22,-335.8"/>
<text text-anchor="start" x="2100.22" y="-348" font-family="Arial" font-size="14.00">token_hash </text>
<text text-anchor="start" x="2176.5" y="-348" font-family="Arial" font-size="14.00" fill="#666666">[varchar(256)]</text>
<polygon fill="none" stroke="black" points="2093.22,-305 2093.22,-335.8 2330.67,-335.8 2330.67,-305 2093.22,-305"/>
<text text-anchor="start" x="2100.22" y="-317.2" font-family="Arial" font-size="14.00">generation </text>
<text text-anchor="start" x="2170.28" y="-317.2" font-family="Arial" font-size="14.00" fill="#666666">[int(11)]</text>
<polygon fill="none" stroke="black" points="2093.22,-274.2 2093.22,-305 2330.67,-305 2330.67,-274.2 2093.22,-274.2"/>
<text text-anchor="start" x="2100.22" y="-286.4" font-family="Arial" font-size="14.00">ip_address </text>
<text text-anchor="start" x="2172.6" y="-286.4" font-family="Arial" font-size="14.00" fill="#666666">[varchar(64)]</text>
<polygon fill="none" stroke="black" points="2093.22,-243.4 2093.22,-274.2 2330.67,-274.2 2330.67,-243.4 2093.22,-243.4"/>
<text text-anchor="start" x="2100.22" y="-255.6" font-family="Arial" font-size="14.00">user_agent </text>
<text text-anchor="start" x="2174.17" y="-255.6" font-family="Arial" font-size="14.00" fill="#666666">[varchar(512)]</text>
<polygon fill="none" stroke="black" points="2093.22,-212.6 2093.22,-243.4 2330.67,-243.4 2330.67,-212.6 2093.22,-212.6"/>
<text text-anchor="start" x="2100.22" y="-224.8" font-family="Arial" font-size="14.00">access_token_jti </text>
<text text-anchor="start" x="2207.61" y="-224.8" font-family="Arial" font-size="14.00" fill="#666666">[varbinary(16)]</text>
<polygon fill="none" stroke="black" points="2093.22,-181.8 2093.22,-212.6 2330.67,-212.6 2330.67,-181.8 2093.22,-181.8"/>
<text text-anchor="start" x="2100.22" y="-194" font-family="Arial" font-size="14.00">activated_at </text>
<text text-anchor="start" x="2179.61" y="-194" font-family="Arial" font-size="14.00" fill="#666666">[datetime]</text>
<polygon fill="none" stroke="black" points="2093.22,-151 2093.22,-181.8 2330.67,-181.8 2330.67,-151 2093.22,-151"/>
<text text-anchor="start" x="2100.22" y="-163.2" font-family="Arial" font-size="14.00">last_used_at </text>
<text text-anchor="start" x="2183.5" y="-163.2" font-family="Arial" font-size="14.00" fill="#666666">[datetime]</text>
<polygon fill="none" stroke="black" points="2093.22,-120.2 2093.22,-151 2330.67,-151 2330.67,-120.2 2093.22,-120.2"/>
<text text-anchor="start" x="2100.22" y="-132.4" font-family="Arial" font-size="14.00">expires_at </text>
<text text-anchor="start" x="2168.7" y="-132.4" font-family="Arial" font-size="14.00" fill="#666666">[datetime]</text>
<polygon fill="none" stroke="black" points="2093.22,-89.4 2093.22,-120.2 2330.67,-120.2 2330.67,-89.4 2093.22,-89.4"/>
<text text-anchor="start" x="2100.22" y="-101.6" font-family="Arial" font-size="14.00">created_at </text>
<text text-anchor="start" x="2170.27" y="-101.6" font-family="Arial" font-size="14.00" fill="#666666">[datetime]</text>
<polygon fill="none" stroke="black" points="2093.22,-58.6 2093.22,-89.4 2330.67,-89.4 2330.67,-58.6 2093.22,-58.6"/>
<text text-anchor="start" x="2100.22" y="-70.8" font-family="Arial" font-size="14.00">updated_at </text>
<text text-anchor="start" x="2174.18" y="-70.8" font-family="Arial" font-size="14.00" fill="#666666">[datetime]</text>
</g>
<!-- chat -->
<g id="node8" class="node">
<title>chat</title>
<polygon fill="#efefef" stroke="none" points="2435.35,-366.6 2435.35,-402.2 2606.54,-402.2 2606.54,-366.6 2435.35,-366.6"/>
<polygon fill="none" stroke="black" points="2435.35,-366.6 2435.35,-402.2 2606.54,-402.2 2606.54,-366.6 2435.35,-366.6"/>
<text text-anchor="start" x="2443.71" y="-380" font-family="Arial Bold" font-size="18.00">chat</text>
<text text-anchor="start" x="2473.69" y="-380" font-family="Arial" font-size="14.00">    </text>
<text text-anchor="start" x="2504.81" y="-380" font-family="Arial" font-size="14.00" fill="#666666">[BASE TABLE]</text>
<polygon fill="none" stroke="black" points="2435.35,-335.8 2435.35,-366.6 2606.54,-366.6 2606.54,-335.8 2435.35,-335.8"/>
<text text-anchor="start" x="2442.35" y="-348" font-family="Arial" font-size="14.00">chat_id </text>
<text text-anchor="start" x="2491.39" y="-348" font-family="Arial" font-size="14.00" fill="#666666">[varbinary(16)]</text>
<polygon fill="none" stroke="black" points="2435.35,-305 2435.35,-335.8 2606.54,-335.8 2606.54,-305 2435.35,-305"/>
<text text-anchor="start" x="2442.35" y="-317.2" font-family="Arial" font-size="14.00">name </text>
<text text-anchor="start" x="2481.26" y="-317.2" font-family="Arial" font-size="14.00" fill="#666666">[varchar(256)]</text>
<polygon fill="none" stroke="black" points="2435.35,-274.2 2435.35,-305 2606.54,-305 2606.54,-274.2 2435.35,-274.2"/>
<text text-anchor="start" x="2442.35" y="-286.4" font-family="Arial" font-size="14.00">user_id </text>
<text text-anchor="start" x="2492.16" y="-286.4" font-family="Arial" font-size="14.00" fill="#666666">[varbinary(16)]</text>
<polygon fill="none" stroke="black" points="2435.35,-243.4 2435.35,-274.2 2606.54,-274.2 2606.54,-243.4 2435.35,-243.4"/>
<text text-anchor="start" x="2442.35" y="-255.6" font-family="Arial" font-size="14.00">messages </text>
<text text-anchor="start" x="2510.05" y="-255.6" font-family="Arial" font-size="14.00" fill="#666666">[longtext]</text>
<polygon fill="none" stroke="black" points="2435.35,-212.6 2435.35,-243.4 2606.54,-243.4 2606.54,-212.6 2435.35,-212.6"/>
<text text-anchor="start" x="2442.35" y="-224.8" font-family="Arial" font-size="14.00">started_at </text>
<text text-anchor="start" x="2508.5" y="-224.8" font-family="Arial" font-size="14.00" fill="#666666">[datetime]</text>
<polygon fill="none" stroke="black" points="2435.35,-181.8 2435.35,-212.6 2606.54,-212.6 2606.54,-181.8 2435.35,-181.8"/>
<text text-anchor="start" x="2442.35" y="-194" font-family="Arial" font-size="14.00">last_activity_at </text>
<text text-anchor="start" x="2538.06" y="-194" font-family="Arial" font-size="14.00" fill="#666666">[datetime]</text>
<polygon fill="none" stroke="black" points="2435.35,-151 2435.35,-181.8 2606.54,-181.8 2606.54,-151 2435.35,-151"/>
<text text-anchor="start" x="2442.35" y="-163.2" font-family="Arial" font-size="14.00">created_at </text>
<text text-anchor="start" x="2512.4" y="-163.2" font-family="Arial" font-size="14.00" fill="#666666">[datetime]</text>
<polygon fill="none" stroke="black" points="2435.35,-120.2 2435.35,-151 2606.54,-151 2606.54,-120.2 2435.35,-120.2"/>
<text text-anchor="start" x="2442.35" y="-132.4" font-family="Arial" font-size="14.00">updated_at </text>
<text text-anchor="start" x="2516.31" y="-132.4" font-family="Arial" font-size="14.00" fill="#666666">[datetime]</text>
</g>
<!-- file -->
<g id="node9" class="node">
<title>file</title>
<polygon fill="#efefef" stroke="none" points="2710.44,-443.6 2710.44,-479.2 2931.45,-479.2 2931.45,-443.6 2710.44,-443.6"/>
<polygon fill="none" stroke="black" points="2710.44,-443.6 2710.44,-479.2 2931.45,-479.2 2931.45,-443.6 2710.44,-443.6"/>
<text text-anchor="start" x="2746.71" y="-457" font-family="Arial Bold" font-size="18.00">file</text>
<text text-anchor="start" x="2770.69" y="-457" font-family="Arial" font-size="14.00">    </text>
<text text-anchor="start" x="2801.81" y="-457" font-family="Arial" font-size="14.00" fill="#666666">[BASE TABLE]</text>
<polygon fill="none" stroke="black" points="2710.44,-412.8 2710.44,-443.6 2931.45,-443.6 2931.45,-412.8 2710.44,-412.8"/>
<text text-anchor="start" x="2717.44" y="-425" font-family="Arial" font-size="14.00">file_id </text>
<text text-anchor="start" x="2757.91" y="-425" font-family="Arial" font-size="14.00" fill="#666666">[varbinary(16)]</text>
<polygon fill="none" stroke="black" points="2710.44,-382 2710.44,-412.8 2931.45,-412.8 2931.45,-382 2710.44,-382"/>
<text text-anchor="start" x="2717.44" y="-394.2" font-family="Arial" font-size="14.00">name </text>
<text text-anchor="start" x="2756.35" y="-394.2" font-family="Arial" font-size="14.00" fill="#666666">[varchar(256)]</text>
<polygon fill="none" stroke="black" points="2710.44,-351.2 2710.44,-382 2931.45,-382 2931.45,-351.2 2710.44,-351.2"/>
<text text-anchor="start" x="2717.44" y="-363.4" font-family="Arial" font-size="14.00">description </text>
<text text-anchor="start" x="2789.03" y="-363.4" font-family="Arial" font-size="14.00" fill="#666666">[varchar(1024)]</text>
<polygon fill="none" stroke="black" points="2710.44,-320.4 2710.44,-351.2 2931.45,-351.2 2931.45,-320.4 2710.44,-320.4"/>
<text text-anchor="start" x="2717.44" y="-332.6" font-family="Arial" font-size="14.00">user_id </text>
<text text-anchor="start" x="2767.24" y="-332.6" font-family="Arial" font-size="14.00" fill="#666666">[varbinary(16)]</text>
<polygon fill="none" stroke="black" points="2710.44,-289.6 2710.44,-320.4 2931.45,-320.4 2931.45,-289.6 2710.44,-289.6"/>
<text text-anchor="start" x="2717.44" y="-301.8" font-family="Arial" font-size="14.00">storage_id </text>
<text text-anchor="start" x="2786.71" y="-301.8" font-family="Arial" font-size="14.00" fill="#666666">[varbinary(16)]</text>
<polygon fill="none" stroke="black" points="2710.44,-258.8 2710.44,-289.6 2931.45,-289.6 2931.45,-258.8 2710.44,-258.8"/>
<text text-anchor="start" x="2717.44" y="-271" font-family="Arial" font-size="14.00">file_size </text>
<text text-anchor="start" x="2771.91" y="-271" font-family="Arial" font-size="14.00" fill="#666666">[bigint(20) unsigned]</text>
<polygon fill="none" stroke="black" points="2710.44,-228 2710.44,-258.8 2931.45,-258.8 2931.45,-228 2710.44,-228"/>
<text text-anchor="start" x="2717.44" y="-240.2" font-family="Arial" font-size="14.00">parent_id </text>
<text text-anchor="start" x="2779.71" y="-240.2" font-family="Arial" font-size="14.00" fill="#666666">[varbinary(16)]</text>
<polygon fill="none" stroke="black" points="2710.44,-197.2 2710.44,-228 2931.45,-228 2931.45,-197.2 2710.44,-197.2"/>
<text text-anchor="start" x="2717.44" y="-209.4" font-family="Arial" font-size="14.00">uploaded_at </text>
<text text-anchor="start" x="2798.4" y="-209.4" font-family="Arial" font-size="14.00" fill="#666666">[datetime]</text>
<polygon fill="none" stroke="black" points="2710.44,-166.4 2710.44,-197.2 2931.45,-197.2 2931.45,-166.4 2710.44,-166.4"/>
<text text-anchor="start" x="2717.44" y="-178.6" font-family="Arial" font-size="14.00">changed_at </text>
<text text-anchor="start" x="2794.51" y="-178.6" font-family="Arial" font-size="14.00" fill="#666666">[datetime]</text>
<polygon fill="none" stroke="black" points="2710.44,-135.6 2710.44,-166.4 2931.45,-166.4 2931.45,-135.6 2710.44,-135.6"/>
<text text-anchor="start" x="2717.44" y="-147.8" font-family="Arial" font-size="14.00">created_at </text>
<text text-anchor="start" x="2787.49" y="-147.8" font-family="Arial" font-size="14.00" fill="#666666">[datetime]</text>
<polygon fill="none" stroke="black" points="2710.44,-104.8 2710.44,-135.6 2931.45,-135.6 2931.45,-104.8 2710.44,-104.8"/>
<text text-anchor="start" x="2717.44" y="-117" font-family="Arial" font-size="14.00">updated_at </text>
<text text-anchor="start" x="2791.4" y="-117" font-family="Arial" font-size="14.00" fill="#666666">[datetime]</text>
<polygon fill="none" stroke="black" points="2710.44,-74 2710.44,-104.8 2931.45,-104.8 2931.45,-74 2710.44,-74"/>
<text text-anchor="start" x="2717.44" y="-86.2" font-family="Arial" font-size="14.00">storage_type </text>
<text text-anchor="start" x="2802.27" y="-86.2" font-family="Arial" font-size="14.00" fill="#666666">[tinyint(3) unsigned]</text>
<polygon fill="none" stroke="black" points="2710.44,-43.2 2710.44,-74 2931.45,-74 2931.45,-43.2 2710.44,-43.2"/>
<text text-anchor="start" x="2717.44" y="-55.4" font-family="Arial" font-size="14.00">parent_kind </text>
<text text-anchor="start" x="2794.49" y="-55.4" font-family="Arial" font-size="14.00" fill="#666666">[tinyint(3) unsigned]</text>
</g>
<!-- project -->
<g id="node10" class="node">
<title>project</title>
<polygon fill="#efefef" stroke="none" points="3035.72,-382 3035.72,-417.6 3248.16,-417.6 3248.16,-382 3035.72,-382"/>
<polygon fill="none" stroke="black" points="3035.72,-382 3035.72,-417.6 3248.16,-417.6 3248.16,-382 3035.72,-382"/>
<text text-anchor="start" x="3054.71" y="-395.4" font-family="Arial Bold" font-size="18.00">project</text>
<text text-anchor="start" x="3104.69" y="-395.4" font-family="Arial" font-size="14.00">    </text>
<text text-anchor="start" x="3135.8" y="-395.4" font-family="Arial" font-size="14.00" fill="#666666">[BASE TABLE]</text>
<polygon fill="none" stroke="black" points="3035.72,-351.2 3035.72,-382 3248.16,-382 3248.16,-351.2 3035.72,-351.2"/>
<text text-anchor="start" x="3042.72" y="-363.4" font-family="Arial" font-size="14.00">project_id </text>
<text text-anchor="start" x="3107.32" y="-363.4" font-family="Arial" font-size="14.00" fill="#666666">[varbinary(16)]</text>
<polygon fill="none" stroke="black" points="3035.72,-320.4 3035.72,-351.2 3248.16,-351.2 3248.16,-320.4 3035.72,-320.4"/>
<text text-anchor="start" x="3042.72" y="-332.6" font-family="Arial" font-size="14.00">created_by </text>
<text text-anchor="start" x="3115.88" y="-332.6" font-family="Arial" font-size="14.00" fill="#666666">[varbinary(16)]</text>
<polygon fill="none" stroke="black" points="3035.72,-289.6 3035.72,-320.4 3248.16,-320.4 3248.16,-289.6 3035.72,-289.6"/>
<text text-anchor="start" x="3042.72" y="-301.8" font-family="Arial" font-size="14.00">name </text>
<text text-anchor="start" x="3081.63" y="-301.8" font-family="Arial" font-size="14.00" fill="#666666">[varchar(256)]</text>
<polygon fill="none" stroke="black" points="3035.72,-258.8 3035.72,-289.6 3248.16,-289.6 3248.16,-258.8 3035.72,-258.8"/>
<text text-anchor="start" x="3042.72" y="-271" font-family="Arial" font-size="14.00">description </text>
<text text-anchor="start" x="3114.32" y="-271" font-family="Arial" font-size="14.00" fill="#666666">[varchar(512)]</text>
<polygon fill="none" stroke="black" points="3035.72,-228 3035.72,-258.8 3248.16,-258.8 3248.16,-228 3035.72,-228"/>
<text text-anchor="start" x="3042.72" y="-240.2" font-family="Arial" font-size="14.00">indexed_at </text>
<text text-anchor="start" x="3115.12" y="-240.2" font-family="Arial" font-size="14.00" fill="#666666">[datetime]</text>
<polygon fill="none" stroke="black" points="3035.72,-197.2 3035.72,-228 3248.16,-228 3248.16,-197.2 3035.72,-197.2"/>
<text text-anchor="start" x="3042.72" y="-209.4" font-family="Arial" font-size="14.00">last_seen_at </text>
<text text-anchor="start" x="3126.01" y="-209.4" font-family="Arial" font-size="14.00" fill="#666666">[datetime]</text>
<polygon fill="none" stroke="black" points="3035.72,-166.4 3035.72,-197.2 3248.16,-197.2 3248.16,-166.4 3035.72,-166.4"/>
<text text-anchor="start" x="3042.72" y="-178.6" font-family="Arial" font-size="14.00">last_seen_file_id </text>
<text text-anchor="start" x="3150.91" y="-178.6" font-family="Arial" font-size="14.00" fill="#666666">[varbinary(16)]</text>
<polygon fill="none" stroke="black" points="3035.72,-135.6 3035.72,-166.4 3248.16,-166.4 3248.16,-135.6 3035.72,-135.6"/>
<text text-anchor="start" x="3042.72" y="-147.8" font-family="Arial" font-size="14.00">created_at </text>
<text text-anchor="start" x="3112.77" y="-147.8" font-family="Arial" font-size="14.00" fill="#666666">[datetime]</text>
<polygon fill="none" stroke="black" points="3035.72,-104.8 3035.72,-135.6 3248.16,-135.6 3248.16,-104.8 3035.72,-104.8"/>
<text text-anchor="start" x="3042.72" y="-117" font-family="Arial" font-size="14.00">updated_at </text>
<text text-anchor="start" x="3116.68" y="-117" font-family="Arial" font-size="14.00" fill="#666666">[datetime]</text>
</g>
<!-- text_storage -->
<g id="node11" class="node">
<title>text_storage</title>
<polygon fill="#efefef" stroke="none" points="3352.71,-305 3352.71,-340.6 3579.17,-340.6 3579.17,-305 3352.71,-305"/>
<polygon fill="none" stroke="black" points="3352.71,-305 3352.71,-340.6 3579.17,-340.6 3579.17,-305 3352.71,-305"/>
<text text-anchor="start" x="3359.71" y="-318.4" font-family="Arial Bold" font-size="18.00">text_storage</text>
<text text-anchor="start" x="3447.68" y="-318.4" font-family="Arial" font-size="14.00">    </text>
<text text-anchor="start" x="3478.8" y="-318.4" font-family="Arial" font-size="14.00" fill="#666666">[BASE TABLE]</text>
<polygon fill="none" stroke="black" points="3352.71,-274.2 3352.71,-305 3579.17,-305 3579.17,-274.2 3352.71,-274.2"/>
<text text-anchor="start" x="3359.71" y="-286.4" font-family="Arial" font-size="14.00">storage_id </text>
<text text-anchor="start" x="3428.98" y="-286.4" font-family="Arial" font-size="14.00" fill="#666666">[varbinary(16)]</text>
<polygon fill="none" stroke="black" points="3352.71,-243.4 3352.71,-274.2 3579.17,-274.2 3579.17,-243.4 3352.71,-243.4"/>
<text text-anchor="start" x="3359.71" y="-255.6" font-family="Arial" font-size="14.00">content </text>
<text text-anchor="start" x="3409.53" y="-255.6" font-family="Arial" font-size="14.00" fill="#666666">[longtext]</text>
<polygon fill="none" stroke="black" points="3352.71,-212.6 3352.71,-243.4 3579.17,-243.4 3579.17,-212.6 3352.71,-212.6"/>
<text text-anchor="start" x="3359.71" y="-224.8" font-family="Arial" font-size="14.00">created_at </text>
<text text-anchor="start" x="3429.76" y="-224.8" font-family="Arial" font-size="14.00" fill="#666666">[datetime]</text>
<polygon fill="none" stroke="black" points="3352.71,-181.8 3352.71,-212.6 3579.17,-212.6 3579.17,-181.8 3352.71,-181.8"/>
<text text-anchor="start" x="3359.71" y="-194" font-family="Arial" font-size="14.00">updated_at </text>
<text text-anchor="start" x="3433.67" y="-194" font-family="Arial" font-size="14.00" fill="#666666">[datetime]</text>
</g>
</g>
</svg>
