<?xml version="1.0" encoding="UTF-8" standalone="no"?>
<!DOCTYPE svg PUBLIC "-//W3C//DTD SVG 1.1//EN"
 "http://www.w3.org/Graphics/SVG/1.1/DTD/svg11.dtd">
<!-- Generated by graphviz version 12.1.2 (20240928.0832)
 -->
<!-- Title: user Pages: 1 -->
<svg width="391pt" height="475pt"
 viewBox="0.00 0.00 391.46 474.80" xmlns="http://www.w3.org/2000/svg" xmlns:xlink="http://www.w3.org/1999/xlink">
<g id="graph0" class="graph" transform="scale(1 1) rotate(0) translate(4 470.8)">
<title>user</title>
<polygon fill="white" stroke="none" points="-4,4 -4,-470.8 387.46,-470.8 387.46,4 -4,4"/>
<!-- user -->
<g id="node1" class="node">
<title>user</title>
<polygon fill="#efefef" stroke="none" points="46.2,-385 46.2,-420.6 337.26,-420.6 337.26,-385 46.2,-385"/>
<polygon fill="none" stroke="black" points="46.2,-385 46.2,-420.6 337.26,-420.6 337.26,-385 46.2,-385"/>
<text text-anchor="start" x="114.49" y="-398.4" font-family="Arial Bold" font-size="18.00">user</text>
<text text-anchor="start" x="144.48" y="-398.4" font-family="Arial" font-size="14.00">    </text>
<text text-anchor="start" x="175.6" y="-398.4" font-family="Arial" font-size="14.00" fill="#666666">[BASE TABLE]</text>
<polygon fill="none" stroke="black" points="46.2,-354.2 46.2,-385 337.26,-385 337.26,-354.2 46.2,-354.2"/>
<text text-anchor="start" x="53.2" y="-366.4" font-family="Arial" font-size="14.00">user_id </text>
<text text-anchor="start" x="103.01" y="-366.4" font-family="Arial" font-size="14.00" fill="#666666">[varbinary(16)]</text>
<polygon fill="none" stroke="black" points="46.2,-323.4 46.2,-354.2 337.26,-354.2 337.26,-323.4 46.2,-323.4"/>
<text text-anchor="start" x="53.2" y="-335.6" font-family="Arial" font-size="14.00">display_name </text>
<text text-anchor="start" x="143.48" y="-335.6" font-family="Arial" font-size="14.00" fill="#666666">[varchar(32)]</text>
<polygon fill="none" stroke="black" points="46.2,-292.6 46.2,-323.4 337.26,-323.4 337.26,-292.6 46.2,-292.6"/>
<text text-anchor="start" x="53.2" y="-304.8" font-family="Arial" font-size="14.00">language_code </text>
<text text-anchor="start" x="152.85" y="-304.8" font-family="Arial" font-size="14.00" fill="#666666">[varchar(7)]</text>
<polygon fill="none" stroke="black" points="46.2,-261.8 46.2,-292.6 337.26,-292.6 337.26,-261.8 46.2,-261.8"/>
<text text-anchor="start" x="53.2" y="-274" font-family="Arial" font-size="14.00">joined_at </text>
<text text-anchor="start" x="113.92" y="-274" font-family="Arial" font-size="14.00" fill="#666666">[datetime]</text>
<polygon fill="none" stroke="black" points="46.2,-231 46.2,-261.8 337.26,-261.8 337.26,-231 46.2,-231"/>
<text text-anchor="start" x="53.2" y="-243.2" font-family="Arial" font-size="14.00">iss </text>
<text text-anchor="start" x="74.2" y="-243.2" font-family="Arial" font-size="14.00" fill="#666666">[varchar(256)]</text>
<polygon fill="none" stroke="black" points="46.2,-200.2 46.2,-231 337.26,-231 337.26,-200.2 46.2,-200.2"/>
<text text-anchor="start" x="53.2" y="-212.4" font-family="Arial" font-size="14.00">sub </text>
<text text-anchor="start" x="79.66" y="-212.4" font-family="Arial" font-size="14.00" fill="#666666">[varchar(256)]</text>
<polygon fill="none" stroke="black" points="46.2,-169.4 46.2,-200.2 337.26,-200.2 337.26,-169.4 46.2,-169.4"/>
<text text-anchor="start" x="53.2" y="-181.6" font-family="Arial" font-size="14.00">recent_seen_file_ids </text>
<text text-anchor="start" x="185.51" y="-181.6" font-family="Arial" font-size="14.00" fill="#666666">[longtext]</text>
<polygon fill="none" stroke="black" points="46.2,-138.6 46.2,-169.4 337.26,-169.4 337.26,-138.6 46.2,-138.6"/>
<text text-anchor="start" x="53.2" y="-150.8" font-family="Arial" font-size="14.00">ai_learning_summary </text>
<text text-anchor="start" x="190.93" y="-150.8" font-family="Arial" font-size="14.00" fill="#666666">[varchar(512)]</text>
<polygon fill="none" stroke="black" points="46.2,-107.8 46.2,-138.6 337.26,-138.6 337.26,-107.8 46.2,-107.8"/>
<text text-anchor="start" x="53.2" y="-120" font-family="Arial" font-size="14.00">ai_learning_summary_updated_at </text>
<text text-anchor="start" x="268.78" y="-120" font-family="Arial" font-size="14.00" fill="#666666">[datetime]</text>
<polygon fill="none" stroke="black" points="46.2,-77 46.2,-107.8 337.26,-107.8 337.26,-77 46.2,-77"/>
<text text-anchor="start" x="53.2" y="-89.2" font-family="Arial" font-size="14.00">created_at </text>
<text text-anchor="start" x="123.25" y="-89.2" font-family="Arial" font-size="14.00" fill="#666666">[datetime]</text>
<polygon fill="none" stroke="black" points="46.2,-46.2 46.2,-77 337.26,-77 337.26,-46.2 46.2,-46.2"/>
<text text-anchor="start" x="53.2" y="-58.4" font-family="Arial" font-size="14.00">updated_at </text>
<text text-anchor="start" x="127.16" y="-58.4" font-family="Arial" font-size="14.00" fill="#666666">[datetime]</text>
<polygon fill="none" stroke="black" stroke-width="3" points="44.7,-44.7 44.7,-422.1 338.76,-422.1 338.76,-44.7 44.7,-44.7"/>
</g>
</g>
</svg>
